<?xml version="1.0" encoding="UTF-8"?>
<svg xmlns="http://www.w3.org/2000/svg" xmlns:xlink="http://www.w3.org/1999/xlink" width="35pt" height="35pt" viewBox="0 0 35 35" version="1.1">
<g id="surface1">
<path style=" stroke:none;fill-rule:nonzero;fill:rgb(12.156863%,38.431373%,68.235294%);fill-opacity:1;" d="M 29.945312 31.597656 L 17.5 35 L 5.058594 31.597656 L 2.1875 0 L 32.816406 0 Z M 29.945312 31.597656 "/>
<path style=" stroke:none;fill-rule:nonzero;fill:rgb(20.392157%,49.019608%,77.647059%);fill-opacity:1;" d="M 17.5 2.1875 L 17.5 32.539062 L 27.597656 29.539062 L 30.285156 2.1875 Z M 17.5 2.1875 "/>
<path style=" stroke:none;fill-rule:nonzero;fill:rgb(100%,100%,100%);fill-opacity:1;" d="M 26.648438 6.5625 L 8.320312 6.5625 L 8.75 10.9375 L 17.5 10.9375 L 9.023438 14.207031 L 9.425781 18.59375 L 21.332031 18.59375 L 20.953125 22.96875 L 17.5 24.050781 L 14.066406 22.953125 L 13.707031 20.78125 L 9.628906 20.78125 L 10.128906 26.234375 L 17.5 28.425781 L 24.859375 26.234375 L 25.941406 14.207031 L 17.527344 14.207031 L 26.25 10.9375 Z M 26.648438 6.5625 "/>
</g>
</svg>
