<?xml version="1.0" encoding="UTF-8"?>
<svg xmlns="http://www.w3.org/2000/svg" xmlns:xlink="http://www.w3.org/1999/xlink" width="35pt" height="35pt" viewBox="0 0 35 35" version="1.1">
<g id="surface1">
<path style=" stroke:none;fill-rule:evenodd;fill:rgb(9.411765%,8.627451%,8.627451%);fill-opacity:1;" d="M 17.5 0.414062 C 11.074219 0.414062 5.867188 5.621094 5.867188 12.046875 C 5.867188 17.1875 9.199219 21.546875 13.820312 23.085938 C 14.402344 23.191406 14.617188 22.832031 14.617188 22.527344 C 14.617188 22.25 14.605469 21.332031 14.601562 20.359375 C 11.363281 21.0625 10.683594 18.988281 10.683594 18.988281 C 10.152344 17.644531 9.390625 17.285156 9.390625 17.285156 C 8.335938 16.5625 9.46875 16.578125 9.46875 16.578125 C 10.636719 16.660156 11.253906 17.777344 11.253906 17.777344 C 12.289062 19.554688 13.972656 19.042969 14.636719 18.742188 C 14.742188 17.992188 15.042969 17.476562 15.378906 17.1875 C 12.792969 16.894531 10.078125 15.894531 10.078125 11.4375 C 10.078125 10.167969 10.53125 9.132812 11.277344 8.316406 C 11.15625 8.023438 10.757812 6.839844 11.386719 5.238281 C 11.386719 5.238281 12.363281 4.925781 14.585938 6.429688 C 15.515625 6.171875 16.511719 6.042969 17.5 6.039062 C 18.488281 6.042969 19.484375 6.171875 20.414062 6.429688 C 22.632812 4.925781 23.609375 5.238281 23.609375 5.238281 C 24.242188 6.839844 23.84375 8.023438 23.722656 8.316406 C 24.46875 9.128906 24.921875 10.167969 24.921875 11.4375 C 24.921875 15.90625 22.199219 16.890625 19.609375 17.179688 C 20.027344 17.539062 20.398438 18.246094 20.398438 19.332031 C 20.398438 20.890625 20.386719 22.140625 20.386719 22.523438 C 20.386719 22.835938 20.59375 23.199219 21.183594 23.082031 C 25.804688 21.542969 29.132812 17.183594 29.132812 12.046875 C 29.132812 5.621094 23.925781 0.414062 17.5 0.414062 Z M 17.5 0.414062 "/>
<path style=" stroke:none;fill-rule:nonzero;fill:rgb(9.411765%,8.627451%,8.627451%);fill-opacity:1;" d="M 10.273438 17.117188 C 10.246094 17.175781 10.15625 17.191406 10.074219 17.152344 C 9.988281 17.113281 9.941406 17.035156 9.96875 16.976562 C 9.992188 16.917969 10.085938 16.902344 10.167969 16.941406 C 10.253906 16.980469 10.300781 17.058594 10.273438 17.117188 Z M 10.746094 17.640625 C 10.6875 17.691406 10.582031 17.667969 10.507812 17.589844 C 10.429688 17.507812 10.417969 17.398438 10.472656 17.347656 C 10.527344 17.296875 10.632812 17.320312 10.710938 17.398438 C 10.785156 17.480469 10.800781 17.589844 10.742188 17.640625 Z M 11.203125 18.3125 C 11.132812 18.359375 11.015625 18.316406 10.941406 18.210938 C 10.871094 18.109375 10.871094 17.984375 10.945312 17.933594 C 11.015625 17.882812 11.132812 17.929688 11.203125 18.03125 C 11.277344 18.136719 11.277344 18.261719 11.203125 18.3125 Z M 11.832031 18.960938 C 11.765625 19.03125 11.632812 19.011719 11.53125 18.914062 C 11.429688 18.820312 11.402344 18.6875 11.464844 18.617188 C 11.53125 18.546875 11.667969 18.566406 11.765625 18.660156 C 11.867188 18.753906 11.898438 18.890625 11.832031 18.957031 Z M 12.699219 19.335938 C 12.671875 19.425781 12.539062 19.46875 12.40625 19.429688 C 12.277344 19.390625 12.191406 19.28125 12.214844 19.191406 C 12.242188 19.097656 12.375 19.054688 12.507812 19.097656 C 12.640625 19.136719 12.726562 19.242188 12.699219 19.335938 Z M 13.648438 19.40625 C 13.652344 19.5 13.542969 19.578125 13.402344 19.582031 C 13.265625 19.585938 13.152344 19.507812 13.148438 19.414062 C 13.148438 19.316406 13.257812 19.238281 13.398438 19.234375 C 13.535156 19.230469 13.648438 19.308594 13.648438 19.40625 Z M 14.535156 19.253906 C 14.550781 19.347656 14.457031 19.445312 14.320312 19.46875 C 14.183594 19.496094 14.058594 19.4375 14.042969 19.34375 C 14.027344 19.246094 14.121094 19.152344 14.257812 19.125 C 14.394531 19.101562 14.519531 19.160156 14.535156 19.253906 Z M 14.535156 19.253906 "/>
<path style=" stroke:none;fill-rule:nonzero;fill:rgb(6.27451%,5.490196%,5.882353%);fill-opacity:1;" d="M 6.796875 29.613281 L 3.871094 29.613281 C -4.308594 29.574219 -10.90625 22.917969 -10.867188 14.738281 C -10.832031 6.5625 -4.171875 -0.0390625 4.007812 0 L 4.007812 1.429688 C 3.613281 1.429688 3.292969 1.109375 3.292969 0.714844 C 3.292969 0.320312 3.613281 0 4.007812 0 L 5.148438 0 L 5.148438 1.777344 C 5.148438 1.777344 4.890625 1.863281 4.183594 1.863281 C 3.347656 1.863281 2.179688 1.558594 2.179688 -1.007812 C 2.179688 -3.578125 3.394531 -3.914062 4.539062 -3.914062 C 5.527344 -3.914062 5.953125 -3.742188 6.222656 -3.65625 C 6.308594 -3.632812 6.386719 -3.714844 6.386719 -3.792969 L 6.714844 -5.175781 C 8.140625 -5.144531 9.277344 -3.960938 9.246094 -2.535156 C 9.21875 -1.105469 8.035156 0.03125 6.605469 0 C 6.496094 -0.078125 5.824219 -0.453125 4.128906 -0.453125 C 2.175781 -0.453125 0.171875 0.375 0.171875 4.371094 C 0.171875 8.367188 2.464844 8.960938 4.398438 8.960938 C 6 8.960938 6.972656 8.277344 6.972656 8.277344 C 7.011719 8.257812 7.015625 8.199219 7.015625 8.175781 L 7.015625 3.714844 C 5.992188 3.75 5.128906 2.949219 5.089844 1.925781 C 5.054688 0.898438 5.855469 0.0390625 6.878906 0 Z M 21.738281 25.925781 L 20.09375 25.925781 C 12.933594 25.886719 7.160156 20.050781 7.199219 12.894531 C 7.238281 5.734375 13.070312 -0.0390625 20.230469 0 L 20.230469 3.183594 L 17.664062 3.183594 L 17.664062 26.0625 C 10.464844 26.101562 4.601562 20.296875 4.5625 13.101562 C 4.523438 5.902344 10.328125 0.0390625 17.523438 0 L 15.605469 0 C 15.648438 -0.0234375 15.699219 -0.0234375 15.742188 0 L 15.742188 8.621094 C 15.742188 8.695312 15.804688 8.757812 15.878906 8.757812 L 17.527344 8.757812 C 15.109375 11.179688 11.183594 11.183594 8.761719 8.761719 C 6.34375 6.34375 6.339844 2.421875 8.757812 0 L 8.757812 -3.6875 L 11.328125 -3.6875 L 11.324219 0 C 11.324219 0.0742188 11.382812 0.136719 11.460938 0.136719 L 13.109375 0.136719 C 13.074219 3.71875 10.136719 6.59375 6.554688 6.554688 C 2.972656 6.515625 0.101562 3.582031 0.136719 0 L 0.136719 -8.621094 C 2.519531 -8.582031 4.417969 -6.621094 4.378906 -4.242188 C 4.34375 -1.863281 2.382812 0.0390625 0 0 Z M 8.84375 26.121094 C 8.257812 26.121094 7.78125 26.601562 7.78125 27.195312 C 7.78125 27.785156 8.257812 28.265625 8.84375 28.265625 C 9.429688 28.265625 9.90625 27.785156 9.90625 27.195312 C 9.90625 26.601562 9.429688 26.121094 8.84375 26.121094 Z M 9.652344 28.746094 L 8.007812 28.746094 C 7.933594 28.746094 7.867188 28.824219 7.867188 28.902344 L 7.867188 34.601562 C 7.867188 34.769531 7.972656 34.820312 8.105469 34.820312 L 9.585938 34.820312 C 9.746094 34.820312 9.789062 34.742188 9.789062 34.601562 L 9.789062 28.886719 C 1.8125 28.921875 -4.6875 22.488281 -4.722656 14.511719 C -4.761719 6.535156 1.671875 0.0390625 9.648438 0 Z M 28.136719 28.761719 L 26.503906 28.761719 C 18.558594 28.722656 12.152344 22.253906 12.191406 14.3125 C 12.230469 6.371094 18.699219 -0.0390625 26.640625 0 L 26.640625 4.226562 C 26.640625 4.226562 26.222656 4.53125 25.636719 4.53125 C 25.046875 4.53125 24.890625 4.265625 24.890625 3.6875 L 24.890625 0 C 24.847656 0.0234375 24.792969 0.0234375 24.75 0 L 23.09375 0 C 23.136719 -0.0234375 23.1875 -0.0234375 23.230469 0 L 23.230469 3.964844 C 23.230469 5.679688 24.1875 6.097656 25.5 6.097656 C 26.578125 6.097656 27.449219 5.503906 27.449219 5.503906 C 27.449219 5.503906 27.488281 5.816406 27.507812 5.855469 C 27.527344 5.890625 27.574219 5.929688 27.628906 5.929688 L 28.683594 5.925781 C 27.046875 12.207031 20.628906 15.976562 14.34375 14.339844 C 8.0625 12.703125 4.292969 6.285156 5.929688 0 L 5.929688 -5.789062 C 7.527344 -5.75 8.792969 -4.421875 8.753906 -2.824219 C 8.714844 -1.226562 7.390625 0.0390625 5.792969 0 Z M 32.605469 28.566406 C 31.675781 28.566406 31.046875 28.980469 31.046875 28.980469 L 31.046875 26.0625 C 23.847656 26.101562 17.984375 20.296875 17.945312 13.101562 C 17.90625 5.902344 23.710938 0.0390625 30.90625 0 L 29.257812 0 C 29.300781 -0.0234375 29.351562 -0.0234375 29.394531 0 L 29.394531 8.621094 C 27.015625 8.621094 25.085938 6.691406 25.085938 4.3125 C 25.085938 1.929688 27.015625 0 29.394531 0 L 30.542969 0 C 30.59375 0 30.632812 -0.0273438 30.660156 -0.0742188 C 30.6875 -0.121094 30.730469 -0.472656 30.730469 -0.472656 C 30.730469 -0.472656 31.40625 0.167969 32.683594 0.167969 C 34.1875 0.167969 35.046875 -0.59375 35.046875 -3.25 C 35.046875 -5.90625 33.671875 -6.253906 32.742188 -6.253906 Z M 31.960938 33.425781 C 31.394531 33.40625 31.007812 33.148438 31.007812 33.148438 L 31.007812 30.417969 C 31.007812 30.417969 31.386719 30.1875 31.855469 30.144531 C 32.441406 30.09375 33.011719 30.269531 33.011719 31.675781 C 33.011719 33.15625 32.753906 33.449219 31.960938 33.425781 Z M 14.546875 33.390625 C 14.472656 33.390625 14.289062 33.421875 14.101562 33.421875 C 13.492188 33.421875 13.285156 33.140625 13.285156 32.773438 L 13.285156 30.351562 L 14.523438 30.351562 C 6.140625 25.308594 3.433594 14.429688 8.472656 6.050781 C 13.511719 -2.332031 24.394531 -5.039062 32.773438 0 L 32.773438 -1.328125 C 33.140625 -1.289062 33.40625 -0.960938 33.371094 -0.59375 C 33.332031 -0.230469 33.003906 0.0390625 32.636719 0 L 31.402344 0 L 31.398438 -1.632812 C 31.398438 -1.695312 31.367188 -1.726562 31.296875 -1.726562 L 29.609375 -1.726562 C 29.546875 -1.726562 29.511719 -1.695312 29.511719 -1.632812 L 29.511719 0.0546875 C 29.511719 0.0546875 28.667969 0.257812 28.609375 0.273438 C 28.535156 0.238281 28.503906 0.148438 28.539062 0.0703125 C 28.574219 -0.00390625 28.664062 -0.0351562 28.742188 0 L 28.742188 1.058594 C 28.449219 1.058594 28.210938 0.824219 28.210938 0.53125 C 28.210938 0.238281 28.449219 0 28.742188 0 L 29.605469 0 L 29.605469 2.550781 C 29.605469 4.445312 30.933594 4.632812 31.832031 4.632812 C 32.238281 4.632812 32.730469 4.5 32.8125 4.46875 C 32.859375 4.453125 32.886719 4.402344 32.886719 4.347656 L 32.890625 3.179688 C 32.011719 3.21875 31.269531 2.535156 31.230469 1.660156 C 31.191406 0.78125 31.875 0.0390625 32.753906 0 Z M 14.546875 33.390625 "/>
</g>
</svg>
