<?xml version="1.0" encoding="UTF-8"?>
<svg xmlns="http://www.w3.org/2000/svg" xmlns:xlink="http://www.w3.org/1999/xlink" width="35pt" height="35pt" viewBox="0 0 35 35" version="1.1">
<g id="surface1">
<path style=" stroke:none;fill-rule:nonzero;fill:rgb(90.196078%,35.294118%,30.196078%);fill-opacity:1;" d="M 31.519531 4.804688 C 31.828125 4.621094 32.140625 4.722656 32.445312 4.804688 C 33.613281 5.125 34.4375 6.199219 34.460938 7.421875 C 34.46875 7.730469 34.453125 8.039062 34.453125 8.339844 C 34.363281 8.339844 34.308594 8.394531 34.242188 8.441406 C 33.378906 9.058594 32.503906 9.671875 31.648438 10.296875 C 31.300781 10.546875 30.917969 10.746094 30.625 11.066406 C 30.5 11.066406 30.414062 11.148438 30.324219 11.210938 C 27.480469 13.171875 24.636719 15.128906 21.800781 17.089844 C 20.390625 18.0625 18.984375 19.046875 17.574219 20.023438 C 17.535156 20.023438 17.492188 20.023438 17.460938 20.023438 C 17.398438 19.976562 17.34375 19.914062 17.28125 19.871094 C 13.816406 17.460938 10.351562 15.046875 6.882812 12.632812 C 6.171875 12.140625 5.460938 11.640625 4.75 11.148438 C 4.667969 11.09375 4.59375 10.976562 4.492188 11.039062 C 4.394531 11.09375 4.457031 11.226562 4.445312 11.328125 C 4.4375 11.359375 4.445312 11.394531 4.445312 11.429688 C 4.445312 17.136719 4.445312 22.84375 4.445312 28.554688 C 4.445312 28.675781 4.449219 28.804688 4.457031 28.929688 C 4.457031 29 4.449219 29.058594 4.449219 29.128906 C 3.152344 29.285156 1.96875 29.105469 1.15625 27.929688 C 0.863281 27.5 0.691406 27.023438 0.691406 26.488281 C 0.691406 20.109375 0.683594 13.738281 0.699219 7.363281 C 0.699219 6.0625 1.75 4.914062 3.042969 4.730469 C 3.246094 4.703125 3.453125 4.675781 3.628906 4.8125 C 3.671875 4.851562 3.707031 4.894531 3.753906 4.929688 C 8.273438 8.277344 12.789062 11.628906 17.308594 14.984375 C 17.488281 15.113281 17.601562 15.105469 17.78125 14.976562 C 21.390625 12.3125 25.007812 9.652344 28.617188 6.992188 C 29.570312 6.261719 30.542969 5.53125 31.519531 4.804688 Z M 31.519531 4.804688 "/>
<path style=" stroke:none;fill-rule:nonzero;fill:rgb(96.470588%,95.686275%,92.54902%);fill-opacity:1;" d="M 31.519531 4.804688 C 30.542969 5.53125 29.570312 6.261719 28.59375 6.984375 C 24.984375 9.652344 21.367188 12.304688 17.757812 14.96875 C 17.582031 15.101562 17.472656 15.109375 17.289062 14.976562 C 12.777344 11.621094 8.257812 8.277344 3.738281 4.921875 C 3.691406 4.886719 3.65625 4.847656 3.617188 4.804688 C 3.699219 4.667969 3.84375 4.71875 3.957031 4.71875 C 13.03125 4.71875 22.109375 4.71875 31.179688 4.71875 C 31.296875 4.71875 31.429688 4.667969 31.519531 4.804688 Z M 31.519531 4.804688 "/>
<path style=" stroke:none;fill-rule:nonzero;fill:rgb(90.196078%,89.019608%,83.921569%);fill-opacity:1;" d="M 4.445312 28.914062 C 4.4375 28.792969 4.429688 28.664062 4.429688 28.539062 C 4.429688 22.832031 4.429688 17.125 4.429688 11.414062 C 4.429688 11.382812 4.421875 11.347656 4.429688 11.3125 C 4.445312 11.21875 4.382812 11.085938 4.476562 11.027344 C 4.578125 10.964844 4.664062 11.082031 4.738281 11.136719 C 5.449219 11.628906 6.160156 12.125 6.871094 12.617188 C 10.335938 15.03125 13.800781 17.445312 17.265625 19.859375 C 17.328125 19.90625 17.390625 19.960938 17.445312 20.007812 C 17.417969 20.035156 17.382812 20.054688 17.355469 20.085938 C 17.335938 20.105469 17.308594 20.132812 17.289062 20.152344 C 17.234375 20.152344 17.179688 20.164062 17.152344 20.21875 C 17.128906 20.242188 17.101562 20.269531 17.082031 20.289062 C 17.078125 20.304688 17.0625 20.308594 17.054688 20.324219 C 17.070312 20.316406 17.078125 20.304688 17.089844 20.296875 C 17.109375 20.273438 17.136719 20.25 17.15625 20.226562 C 17.210938 20.226562 17.265625 20.214844 17.292969 20.160156 C 17.316406 20.140625 17.34375 20.113281 17.363281 20.089844 C 17.429688 20.089844 17.5 20.085938 17.570312 20.085938 C 18.519531 20.746094 19.476562 21.402344 20.425781 22.066406 C 23.257812 24.027344 26.085938 25.984375 28.910156 27.960938 C 29.414062 28.3125 29.96875 28.621094 30.421875 29.054688 C 30.296875 29.167969 30.148438 29.09375 30.007812 29.113281 C 30.015625 28.957031 29.878906 28.914062 29.777344 28.847656 C 29.257812 28.484375 28.726562 28.136719 28.21875 27.761719 C 27.371094 27.140625 26.507812 26.542969 25.648438 25.941406 C 24.929688 25.445312 24.21875 24.921875 23.480469 24.453125 C 22.839844 24.042969 22.242188 23.550781 21.601562 23.132812 C 20.875 22.667969 20.195312 22.148438 19.476562 21.675781 C 18.882812 21.289062 18.300781 20.871094 17.71875 20.460938 C 17.601562 20.378906 17.5 20.34375 17.375 20.425781 C 17.132812 20.601562 16.816406 20.71875 16.609375 20.910156 C 16.023438 21.449219 15.304688 21.800781 14.691406 22.292969 C 13.90625 22.914062 13.054688 23.46875 12.214844 24.023438 C 10.820312 24.945312 9.46875 25.941406 8.078125 26.871094 C 7.253906 27.425781 6.433594 27.984375 5.640625 28.59375 C 5.421875 28.757812 5.125 28.832031 4.988281 29.105469 C 4.851562 29.09375 4.703125 29.148438 4.574219 29.058594 C 7.019531 27.351562 9.46875 25.648438 11.90625 23.9375 C 12.230469 23.714844 12.59375 23.535156 12.859375 23.234375 C 12.90625 23.222656 12.96875 23.214844 12.960938 23.144531 C 12.960938 23.140625 12.945312 23.125 12.941406 23.125 C 12.871094 23.117188 12.859375 23.171875 12.84375 23.222656 C 12.597656 23.234375 12.449219 23.425781 12.261719 23.550781 C 9.660156 25.347656 7.046875 27.132812 4.445312 28.914062 Z M 16.203125 20.917969 C 16.222656 20.898438 16.25 20.871094 16.269531 20.851562 C 16.324219 20.851562 16.378906 20.835938 16.40625 20.78125 C 16.425781 20.761719 16.453125 20.734375 16.476562 20.710938 C 16.53125 20.710938 16.585938 20.699219 16.609375 20.644531 C 16.617188 20.632812 16.632812 20.625 16.640625 20.609375 C 16.625 20.617188 16.617188 20.632812 16.605469 20.636719 C 16.550781 20.636719 16.496094 20.652344 16.46875 20.707031 C 16.445312 20.726562 16.421875 20.753906 16.398438 20.773438 C 16.34375 20.773438 16.289062 20.789062 16.261719 20.84375 C 16.242188 20.871094 16.222656 20.890625 16.203125 20.917969 C 16.1875 20.925781 16.171875 20.929688 16.167969 20.945312 C 16.179688 20.9375 16.195312 20.929688 16.203125 20.917969 Z M 15.3125 21.527344 C 15.257812 21.527344 15.203125 21.539062 15.175781 21.59375 C 15.132812 21.601562 15.078125 21.601562 15.074219 21.664062 C 15.074219 21.675781 15.101562 21.703125 15.113281 21.703125 C 15.167969 21.695312 15.175781 21.648438 15.183594 21.609375 C 15.238281 21.601562 15.285156 21.59375 15.3125 21.527344 C 15.339844 21.511719 15.367188 21.484375 15.386719 21.464844 C 15.441406 21.464844 15.496094 21.453125 15.523438 21.398438 C 15.546875 21.375 15.570312 21.347656 15.59375 21.328125 C 15.648438 21.328125 15.703125 21.3125 15.730469 21.257812 C 15.734375 21.246094 15.75 21.238281 15.757812 21.226562 C 15.742188 21.234375 15.734375 21.246094 15.722656 21.253906 C 15.667969 21.253906 15.613281 21.265625 15.585938 21.320312 C 15.566406 21.34375 15.539062 21.367188 15.515625 21.390625 C 15.460938 21.390625 15.40625 21.402344 15.382812 21.457031 C 15.351562 21.484375 15.332031 21.507812 15.3125 21.527344 Z M 14.421875 22.148438 C 14.367188 22.148438 14.3125 22.164062 14.289062 22.21875 C 14.234375 22.222656 14.179688 22.230469 14.183594 22.304688 C 14.183594 22.3125 14.199219 22.328125 14.203125 22.328125 C 14.28125 22.332031 14.289062 22.277344 14.292969 22.222656 C 14.347656 22.21875 14.398438 22.203125 14.421875 22.148438 C 14.453125 22.132812 14.472656 22.109375 14.5 22.085938 C 14.554688 22.085938 14.609375 22.074219 14.636719 22.019531 C 14.65625 22 14.683594 21.972656 14.703125 21.949219 C 14.757812 21.949219 14.8125 21.9375 14.839844 21.882812 C 14.847656 21.867188 14.859375 21.859375 14.867188 21.847656 C 14.855469 21.855469 14.847656 21.867188 14.835938 21.875 C 14.78125 21.875 14.726562 21.890625 14.695312 21.945312 C 14.675781 21.964844 14.648438 21.992188 14.628906 22.011719 C 14.574219 22.011719 14.519531 22.023438 14.492188 22.078125 C 14.464844 22.101562 14.445312 22.121094 14.421875 22.148438 Z M 13.742188 22.632812 C 13.796875 22.625 13.851562 22.621094 13.84375 22.546875 C 13.84375 22.539062 13.828125 22.523438 13.820312 22.523438 C 13.746094 22.515625 13.742188 22.570312 13.734375 22.625 C 13.679688 22.625 13.628906 22.640625 13.597656 22.695312 C 13.5 22.703125 13.433594 22.75 13.390625 22.832031 C 13.34375 22.84375 13.28125 22.84375 13.289062 22.921875 C 13.289062 22.929688 13.300781 22.941406 13.308594 22.941406 C 13.378906 22.949219 13.390625 22.894531 13.398438 22.839844 C 13.492188 22.839844 13.589844 22.832031 13.601562 22.703125 C 13.664062 22.695312 13.710938 22.679688 13.742188 22.632812 Z M 15.984375 21.015625 C 15.976562 21.035156 15.960938 21.054688 15.953125 21.070312 C 15.976562 21.074219 15.996094 21.09375 16.007812 21.089844 C 16.023438 21.082031 16.03125 21.054688 16.039062 21.035156 C 16.015625 21.027344 15.996094 21.019531 15.984375 21.015625 Z M 14.0625 22.429688 C 14.054688 22.40625 14.046875 22.382812 14.035156 22.382812 C 14.019531 22.375 13.984375 22.386719 13.980469 22.402344 C 13.957031 22.429688 13.972656 22.460938 14.007812 22.460938 C 14.027344 22.460938 14.039062 22.441406 14.0625 22.429688 Z M 16.90625 20.480469 C 16.914062 20.460938 16.917969 20.4375 16.933594 20.425781 C 16.914062 20.417969 16.890625 20.398438 16.878906 20.40625 C 16.863281 20.414062 16.859375 20.4375 16.851562 20.460938 C 16.863281 20.46875 16.882812 20.472656 16.90625 20.480469 Z M 13.171875 23.039062 C 13.160156 23.015625 13.144531 22.996094 13.140625 22.988281 C 13.125 22.988281 13.089844 23.003906 13.089844 23.015625 C 13.078125 23.050781 13.097656 23.078125 13.132812 23.070312 C 13.144531 23.070312 13.160156 23.050781 13.171875 23.039062 Z M 13.171875 23.039062 "/>
<path style=" stroke:none;fill-rule:nonzero;fill:rgb(71.372549%,70.980392%,67.45098%);fill-opacity:1;" d="M 30.421875 29.058594 C 29.96875 28.621094 29.421875 28.320312 28.910156 27.964844 C 26.085938 25.996094 23.257812 24.035156 20.425781 22.074219 C 19.476562 21.410156 18.519531 20.753906 17.566406 20.089844 C 17.566406 20.070312 17.5625 20.042969 17.5625 20.023438 C 18.96875 19.046875 20.378906 18.066406 21.785156 17.089844 C 24.628906 15.128906 27.472656 13.171875 30.308594 11.210938 C 30.398438 11.148438 30.488281 11.066406 30.609375 11.066406 C 30.609375 17.082031 30.609375 23.097656 30.609375 29.121094 C 30.554688 29.101562 30.488281 29.078125 30.421875 29.058594 Z M 30.421875 29.058594 "/>
<path style=" stroke:none;fill-rule:nonzero;fill:rgb(90.196078%,89.019608%,83.921569%);fill-opacity:1;" d="M 4.992188 29.121094 C 5.121094 28.847656 5.421875 28.773438 5.640625 28.609375 C 6.433594 28.007812 7.253906 27.4375 8.078125 26.886719 C 9.46875 25.949219 10.820312 24.957031 12.214844 24.035156 C 13.054688 23.480469 13.902344 22.929688 14.691406 22.304688 C 15.3125 21.8125 16.023438 21.464844 16.609375 20.925781 C 16.824219 20.734375 17.128906 20.617188 17.375 20.4375 C 17.492188 20.351562 17.59375 20.382812 17.71875 20.472656 C 18.300781 20.882812 18.878906 21.300781 19.476562 21.691406 C 20.191406 22.164062 20.875 22.6875 21.601562 23.148438 C 22.242188 23.554688 22.839844 24.046875 23.480469 24.464844 C 24.21875 24.9375 24.929688 25.457031 25.648438 25.957031 C 26.507812 26.558594 27.378906 27.152344 28.21875 27.773438 C 28.730469 28.152344 29.257812 28.5 29.777344 28.863281 C 29.871094 28.929688 30.015625 28.972656 30.007812 29.128906 C 21.671875 29.121094 13.328125 29.121094 4.992188 29.121094 Z M 4.992188 29.121094 "/>
<path style=" stroke:none;fill-rule:nonzero;fill:rgb(69.411765%,22.352941%,18.431373%);fill-opacity:1;" d="M 30.625 29.121094 C 30.625 23.105469 30.625 17.089844 30.625 11.066406 C 30.917969 10.746094 31.300781 10.546875 31.648438 10.292969 C 32.511719 9.664062 33.378906 9.058594 34.242188 8.441406 C 34.304688 8.394531 34.363281 8.339844 34.453125 8.339844 C 34.460938 8.457031 34.46875 8.566406 34.46875 8.679688 C 34.46875 14.5 34.46875 20.324219 34.472656 26.140625 C 34.472656 26.539062 34.460938 26.933594 34.363281 27.328125 C 34.195312 28.0625 33.757812 28.566406 33.046875 28.820312 C 32.257812 29.09375 31.445312 29.167969 30.625 29.121094 Z M 30.625 29.121094 "/>
<path style=" stroke:none;fill-rule:nonzero;fill:rgb(74.509804%,74.117647%,70.196078%);fill-opacity:1;" d="M 12.859375 23.25 C 12.59375 23.550781 12.230469 23.726562 11.90625 23.953125 C 9.46875 25.664062 7.019531 27.371094 4.574219 29.074219 C 4.523438 29.085938 4.484375 29.101562 4.4375 29.113281 C 4.4375 29.046875 4.441406 28.984375 4.441406 28.917969 C 7.054688 27.132812 9.660156 25.347656 12.269531 23.5625 C 12.453125 23.441406 12.597656 23.242188 12.851562 23.234375 Z M 12.859375 23.25 "/>
<path style=" stroke:none;fill-rule:nonzero;fill:rgb(78.039216%,77.254902%,73.333333%);fill-opacity:1;" d="M 17.570312 20.023438 C 17.570312 20.042969 17.570312 20.070312 17.574219 20.089844 C 17.507812 20.089844 17.4375 20.097656 17.371094 20.097656 C 17.398438 20.070312 17.433594 20.050781 17.460938 20.023438 C 17.484375 20.023438 17.527344 20.023438 17.570312 20.023438 Z M 17.570312 20.023438 "/>
<path style=" stroke:none;fill-rule:nonzero;fill:rgb(74.509804%,74.117647%,70.196078%);fill-opacity:1;" d="M 13.390625 22.824219 C 13.433594 22.742188 13.5 22.695312 13.597656 22.6875 L 13.601562 22.695312 C 13.589844 22.824219 13.492188 22.832031 13.398438 22.832031 Z M 13.390625 22.824219 "/>
<path style=" stroke:none;fill-rule:nonzero;fill:rgb(76.862745%,76.078431%,72.156863%);fill-opacity:1;" d="M 15.984375 21.015625 C 16.003906 21.019531 16.023438 21.027344 16.039062 21.035156 C 16.03125 21.054688 16.023438 21.082031 16.007812 21.089844 C 15.996094 21.09375 15.976562 21.074219 15.953125 21.070312 C 15.960938 21.054688 15.96875 21.035156 15.984375 21.015625 Z M 15.984375 21.015625 "/>
<path style=" stroke:none;fill-rule:nonzero;fill:rgb(74.509804%,74.117647%,70.196078%);fill-opacity:1;" d="M 13.734375 22.621094 C 13.742188 22.566406 13.753906 22.515625 13.824219 22.515625 C 13.828125 22.515625 13.84375 22.53125 13.84375 22.539062 C 13.84375 22.613281 13.789062 22.613281 13.742188 22.625 C 13.742188 22.632812 13.734375 22.621094 13.734375 22.621094 Z M 13.734375 22.621094 "/>
<path style=" stroke:none;fill-rule:nonzero;fill:rgb(74.509804%,74.117647%,70.196078%);fill-opacity:1;" d="M 14.0625 22.429688 C 14.046875 22.441406 14.027344 22.460938 14.015625 22.457031 C 13.980469 22.457031 13.964844 22.421875 13.984375 22.394531 C 13.992188 22.382812 14.027344 22.375 14.039062 22.375 C 14.046875 22.382812 14.046875 22.414062 14.0625 22.429688 Z M 14.0625 22.429688 "/>
<path style=" stroke:none;fill-rule:nonzero;fill:rgb(78.039216%,77.254902%,73.333333%);fill-opacity:1;" d="M 16.90625 20.480469 C 16.882812 20.472656 16.863281 20.46875 16.851562 20.453125 C 16.859375 20.433594 16.863281 20.40625 16.878906 20.398438 C 16.890625 20.390625 16.914062 20.414062 16.933594 20.417969 C 16.917969 20.4375 16.914062 20.460938 16.90625 20.480469 Z M 16.90625 20.480469 "/>
<path style=" stroke:none;fill-rule:nonzero;fill:rgb(74.509804%,74.117647%,70.196078%);fill-opacity:1;" d="M 14.292969 22.222656 C 14.289062 22.277344 14.273438 22.328125 14.203125 22.328125 C 14.199219 22.328125 14.183594 22.3125 14.183594 22.304688 C 14.183594 22.230469 14.238281 22.230469 14.285156 22.21875 C 14.289062 22.21875 14.292969 22.222656 14.292969 22.222656 Z M 14.292969 22.222656 "/>
<path style=" stroke:none;fill-rule:nonzero;fill:rgb(76.078431%,75.294118%,71.372549%);fill-opacity:1;" d="M 15.183594 21.609375 C 15.175781 21.65625 15.167969 21.699219 15.113281 21.703125 C 15.101562 21.703125 15.074219 21.675781 15.074219 21.664062 C 15.078125 21.609375 15.128906 21.601562 15.175781 21.59375 C 15.175781 21.601562 15.183594 21.609375 15.183594 21.609375 Z M 15.183594 21.609375 "/>
<path style=" stroke:none;fill-rule:nonzero;fill:rgb(74.509804%,74.117647%,70.196078%);fill-opacity:1;" d="M 13.40625 22.839844 C 13.390625 22.894531 13.382812 22.941406 13.316406 22.941406 C 13.308594 22.941406 13.296875 22.929688 13.296875 22.921875 C 13.289062 22.84375 13.351562 22.84375 13.398438 22.832031 C 13.390625 22.824219 13.40625 22.839844 13.40625 22.839844 Z M 13.40625 22.839844 "/>
<path style=" stroke:none;fill-rule:nonzero;fill:rgb(74.509804%,74.117647%,70.196078%);fill-opacity:1;" d="M 13.171875 23.039062 C 13.160156 23.050781 13.144531 23.070312 13.132812 23.070312 C 13.089844 23.078125 13.078125 23.050781 13.089844 23.015625 C 13.097656 23.003906 13.125 22.988281 13.140625 22.988281 C 13.144531 22.996094 13.160156 23.023438 13.171875 23.039062 Z M 13.171875 23.039062 "/>
<path style=" stroke:none;fill-rule:nonzero;fill:rgb(74.509804%,74.117647%,70.196078%);fill-opacity:1;" d="M 12.84375 23.234375 C 12.859375 23.179688 12.867188 23.132812 12.941406 23.140625 C 12.945312 23.140625 12.960938 23.152344 12.960938 23.160156 C 12.96875 23.234375 12.90625 23.234375 12.859375 23.25 C 12.859375 23.25 12.84375 23.234375 12.84375 23.234375 Z M 12.84375 23.234375 "/>
<path style=" stroke:none;fill-rule:nonzero;fill:rgb(76.862745%,76.078431%,72.156863%);fill-opacity:1;" d="M 16.40625 20.78125 C 16.378906 20.835938 16.324219 20.851562 16.269531 20.851562 C 16.269531 20.851562 16.261719 20.84375 16.261719 20.84375 C 16.296875 20.796875 16.34375 20.78125 16.40625 20.78125 Z M 16.40625 20.78125 "/>
<path style=" stroke:none;fill-rule:nonzero;fill:rgb(74.509804%,74.117647%,70.196078%);fill-opacity:1;" d="M 13.601562 22.6875 C 13.632812 22.632812 13.6875 22.621094 13.742188 22.621094 C 13.742188 22.621094 13.746094 22.625 13.746094 22.625 C 13.71875 22.679688 13.664062 22.695312 13.609375 22.695312 C 13.609375 22.703125 13.601562 22.6875 13.601562 22.6875 Z M 13.601562 22.6875 "/>
<path style=" stroke:none;fill-rule:nonzero;fill:rgb(76.078431%,75.294118%,71.372549%);fill-opacity:1;" d="M 15.585938 21.328125 C 15.613281 21.273438 15.667969 21.257812 15.722656 21.257812 L 15.730469 21.265625 C 15.695312 21.3125 15.648438 21.328125 15.585938 21.328125 Z M 15.585938 21.328125 "/>
<path style=" stroke:none;fill-rule:nonzero;fill:rgb(76.078431%,75.294118%,71.372549%);fill-opacity:1;" d="M 15.515625 21.398438 C 15.492188 21.453125 15.4375 21.464844 15.382812 21.464844 C 15.40625 21.410156 15.457031 21.398438 15.515625 21.398438 Z M 15.515625 21.398438 "/>
<path style=" stroke:none;fill-rule:nonzero;fill:rgb(74.509804%,74.117647%,70.196078%);fill-opacity:1;" d="M 14.695312 21.945312 C 14.726562 21.890625 14.78125 21.875 14.835938 21.875 L 14.839844 21.882812 C 14.804688 21.929688 14.757812 21.945312 14.695312 21.945312 Z M 14.695312 21.945312 "/>
<path style=" stroke:none;fill-rule:nonzero;fill:rgb(74.509804%,74.117647%,70.196078%);fill-opacity:1;" d="M 14.628906 22.011719 C 14.601562 22.066406 14.546875 22.078125 14.492188 22.078125 C 14.519531 22.019531 14.566406 22.011719 14.628906 22.011719 Z M 14.628906 22.011719 "/>
<path style=" stroke:none;fill-rule:nonzero;fill:rgb(74.509804%,74.117647%,70.196078%);fill-opacity:1;" d="M 14.421875 22.148438 C 14.398438 22.203125 14.34375 22.21875 14.289062 22.21875 C 14.289062 22.21875 14.28125 22.210938 14.28125 22.210938 C 14.3125 22.164062 14.363281 22.148438 14.421875 22.148438 Z M 14.421875 22.148438 "/>
<path style=" stroke:none;fill-rule:nonzero;fill:rgb(78.039216%,77.254902%,73.333333%);fill-opacity:1;" d="M 17.296875 20.164062 C 17.265625 20.21875 17.210938 20.234375 17.15625 20.234375 C 17.15625 20.234375 17.152344 20.226562 17.152344 20.226562 C 17.1875 20.179688 17.234375 20.164062 17.296875 20.164062 Z M 17.296875 20.164062 "/>
<path style=" stroke:none;fill-rule:nonzero;fill:rgb(76.862745%,76.078431%,72.156863%);fill-opacity:1;" d="M 16.476562 20.710938 C 16.5 20.65625 16.554688 20.644531 16.609375 20.644531 C 16.585938 20.699219 16.535156 20.710938 16.476562 20.710938 Z M 16.476562 20.710938 "/>
<path style=" stroke:none;fill-rule:nonzero;fill:rgb(76.078431%,75.294118%,71.372549%);fill-opacity:1;" d="M 15.3125 21.53125 C 15.285156 21.585938 15.230469 21.601562 15.175781 21.601562 C 15.175781 21.601562 15.167969 21.59375 15.167969 21.59375 C 15.203125 21.546875 15.25 21.53125 15.3125 21.53125 C 15.3125 21.527344 15.3125 21.53125 15.3125 21.53125 Z M 15.3125 21.53125 "/>
<path style=" stroke:none;fill-rule:nonzero;fill:rgb(74.509804%,74.117647%,70.196078%);fill-opacity:1;" d="M 14.628906 22.011719 C 14.648438 21.992188 14.675781 21.964844 14.695312 21.945312 C 14.695312 21.945312 14.703125 21.949219 14.703125 21.949219 C 14.675781 21.96875 14.65625 21.992188 14.628906 22.011719 Z M 14.628906 22.011719 "/>
<path style=" stroke:none;fill-rule:nonzero;fill:rgb(76.078431%,75.294118%,71.372549%);fill-opacity:1;" d="M 15.382812 21.464844 C 15.359375 21.484375 15.332031 21.511719 15.3125 21.53125 C 15.3125 21.53125 15.304688 21.527344 15.304688 21.527344 C 15.332031 21.507812 15.351562 21.484375 15.382812 21.464844 Z M 15.382812 21.464844 "/>
<path style=" stroke:none;fill-rule:nonzero;fill:rgb(76.862745%,76.078431%,72.156863%);fill-opacity:1;" d="M 16.203125 20.917969 C 16.222656 20.898438 16.25 20.871094 16.269531 20.851562 C 16.269531 20.851562 16.277344 20.855469 16.277344 20.855469 C 16.25 20.875 16.226562 20.898438 16.203125 20.917969 Z M 16.203125 20.917969 "/>
<path style=" stroke:none;fill-rule:nonzero;fill:rgb(76.078431%,75.294118%,71.372549%);fill-opacity:1;" d="M 15.722656 21.257812 C 15.734375 21.253906 15.742188 21.238281 15.757812 21.234375 C 15.742188 21.238281 15.734375 21.253906 15.722656 21.257812 Z M 15.722656 21.257812 "/>
<path style=" stroke:none;fill-rule:nonzero;fill:rgb(76.862745%,76.078431%,72.156863%);fill-opacity:1;" d="M 16.609375 20.644531 C 16.625 20.636719 16.632812 20.625 16.644531 20.617188 C 16.632812 20.625 16.625 20.636719 16.609375 20.644531 Z M 16.609375 20.644531 "/>
<path style=" stroke:none;fill-rule:nonzero;fill:rgb(78.039216%,77.254902%,73.333333%);fill-opacity:1;" d="M 17.089844 20.304688 C 17.078125 20.308594 17.070312 20.324219 17.054688 20.328125 C 17.070312 20.324219 17.078125 20.308594 17.089844 20.304688 Z M 17.089844 20.304688 "/>
<path style=" stroke:none;fill-rule:nonzero;fill:rgb(78.039216%,77.254902%,73.333333%);fill-opacity:1;" d="M 17.089844 20.304688 C 17.109375 20.28125 17.136719 20.253906 17.15625 20.234375 C 17.15625 20.234375 17.164062 20.242188 17.164062 20.242188 C 17.136719 20.261719 17.117188 20.28125 17.089844 20.304688 Z M 17.089844 20.304688 "/>
<path style=" stroke:none;fill-rule:nonzero;fill:rgb(76.862745%,76.078431%,72.156863%);fill-opacity:1;" d="M 16.40625 20.78125 C 16.425781 20.761719 16.453125 20.734375 16.476562 20.710938 C 16.476562 20.710938 16.480469 20.71875 16.480469 20.71875 C 16.453125 20.742188 16.433594 20.761719 16.40625 20.78125 Z M 16.40625 20.78125 "/>
<path style=" stroke:none;fill-rule:nonzero;fill:rgb(78.039216%,77.254902%,73.333333%);fill-opacity:1;" d="M 17.363281 20.097656 C 17.34375 20.117188 17.316406 20.144531 17.296875 20.164062 C 17.296875 20.164062 17.289062 20.160156 17.289062 20.160156 C 17.316406 20.140625 17.335938 20.117188 17.363281 20.097656 Z M 17.363281 20.097656 "/>
<path style=" stroke:none;fill-rule:nonzero;fill:rgb(76.862745%,76.078431%,72.156863%);fill-opacity:1;" d="M 16.203125 20.917969 C 16.1875 20.925781 16.179688 20.9375 16.167969 20.945312 C 16.179688 20.9375 16.1875 20.925781 16.203125 20.917969 Z M 16.203125 20.917969 "/>
<path style=" stroke:none;fill-rule:nonzero;fill:rgb(74.509804%,74.117647%,70.196078%);fill-opacity:1;" d="M 14.835938 21.875 C 14.847656 21.867188 14.855469 21.855469 14.867188 21.847656 C 14.855469 21.855469 14.847656 21.867188 14.835938 21.875 Z M 14.835938 21.875 "/>
<path style=" stroke:none;fill-rule:nonzero;fill:rgb(76.078431%,75.294118%,71.372549%);fill-opacity:1;" d="M 15.585938 21.328125 C 15.566406 21.347656 15.539062 21.375 15.515625 21.398438 C 15.515625 21.398438 15.511719 21.390625 15.511719 21.390625 C 15.539062 21.367188 15.558594 21.347656 15.585938 21.328125 Z M 15.585938 21.328125 "/>
<path style=" stroke:none;fill-rule:nonzero;fill:rgb(74.509804%,74.117647%,70.196078%);fill-opacity:1;" d="M 14.492188 22.078125 C 14.472656 22.101562 14.445312 22.128906 14.421875 22.148438 C 14.421875 22.148438 14.417969 22.140625 14.417969 22.140625 C 14.445312 22.121094 14.464844 22.101562 14.492188 22.078125 Z M 14.492188 22.078125 "/>
</g>
</svg>
