<?xml version="1.0" encoding="UTF-8"?>
<svg xmlns="http://www.w3.org/2000/svg" xmlns:xlink="http://www.w3.org/1999/xlink" width="35pt" height="35pt" viewBox="0 0 35 35" version="1.1">
<g id="surface1">
<path style=" stroke:none;fill-rule:nonzero;fill:rgb(94.117647%,85.882353%,30.980392%);fill-opacity:1;" d="M 31.171875 17.5 C 31.171875 25.050781 25.050781 31.171875 17.5 31.171875 C 9.949219 31.171875 3.828125 25.050781 3.828125 17.5 C 3.828125 9.949219 9.949219 3.828125 17.5 3.828125 C 25.050781 3.828125 31.171875 9.949219 31.171875 17.5 Z M 31.171875 17.5 "/>
<path style=" stroke:none;fill-rule:nonzero;fill:rgb(19.607843%,20%,18.823529%);fill-opacity:1;" d="M 13.234375 12.195312 L 15.613281 12.195312 L 15.613281 18.894531 C 15.613281 21.902344 14.164062 22.96875 11.867188 22.96875 C 11.292969 22.96875 10.582031 22.886719 10.117188 22.722656 L 10.390625 20.78125 C 10.71875 20.890625 11.15625 20.972656 11.621094 20.972656 C 12.632812 20.972656 13.261719 20.507812 13.261719 18.894531 Z M 13.234375 12.195312 "/>
<path style=" stroke:none;fill-rule:nonzero;fill:rgb(19.607843%,20%,18.823529%);fill-opacity:1;" d="M 17.71875 20.34375 C 18.347656 20.671875 19.359375 21 20.371094 21 C 21.464844 21 22.039062 20.535156 22.039062 19.824219 C 22.039062 19.167969 21.546875 18.785156 20.261719 18.347656 C 18.511719 17.71875 17.335938 16.734375 17.335938 15.175781 C 17.335938 13.398438 18.867188 12.03125 21.355469 12.03125 C 22.558594 12.03125 23.433594 12.277344 24.0625 12.578125 L 23.515625 14.492188 C 23.105469 14.300781 22.339844 14 21.328125 14 C 20.289062 14 19.796875 14.492188 19.796875 15.011719 C 19.796875 15.695312 20.371094 15.996094 21.765625 16.515625 C 23.625 17.199219 24.5 18.183594 24.5 19.6875 C 24.5 21.464844 23.160156 22.96875 20.234375 22.96875 C 19.03125 22.96875 17.828125 22.640625 17.226562 22.3125 Z M 17.71875 20.34375 "/>
</g>
</svg>
