<?xml version="1.0" encoding="UTF-8"?>
<svg xmlns="http://www.w3.org/2000/svg" xmlns:xlink="http://www.w3.org/1999/xlink" width="35pt" height="35pt" viewBox="0 0 35 35" version="1.1">
<g id="surface1">
<path style=" stroke:none;fill-rule:evenodd;fill:rgb(58.039216%,47.45098%,36.470588%);fill-opacity:1;" d="M 23.859375 27.382812 C 23.90625 27.292969 23.949219 27.214844 23.988281 27.132812 C 24.011719 27.082031 24.046875 27.070312 24.101562 27.070312 C 24.410156 27.082031 24.71875 27.089844 25.03125 27.09375 C 25.292969 27.097656 25.558594 27.089844 25.820312 27.089844 C 26.117188 27.085938 26.414062 27.070312 26.710938 27.078125 C 27.105469 27.089844 27.492188 27.167969 27.847656 27.34375 C 28.277344 27.550781 28.597656 27.871094 28.820312 28.292969 C 28.960938 28.5625 29.039062 28.851562 29.074219 29.152344 C 29.121094 29.59375 29.089844 30.023438 28.949219 30.441406 C 28.777344 30.964844 28.449219 31.363281 27.992188 31.664062 C 27.640625 31.890625 27.257812 32.027344 26.84375 32.105469 C 26.410156 32.1875 25.972656 32.160156 25.535156 32.164062 C 25.054688 32.164062 24.574219 32.15625 24.09375 32.148438 C 24.007812 32.148438 23.996094 32.132812 24.019531 32.050781 L 24.039062 31.976562 C 24.085938 31.832031 24.113281 31.824219 24.261719 31.800781 C 24.363281 31.785156 24.472656 31.746094 24.558594 31.6875 C 24.609375 31.652344 24.628906 31.566406 24.648438 31.5 C 24.664062 31.441406 24.667969 31.375 24.667969 31.316406 C 24.675781 30.378906 24.679688 29.441406 24.683594 28.507812 C 24.6875 28.269531 24.679688 28.03125 24.667969 27.796875 C 24.65625 27.632812 24.570312 27.519531 24.371094 27.480469 C 24.21875 27.449219 24.066406 27.425781 23.910156 27.398438 Z M 28.253906 29.648438 C 28.234375 29.460938 28.226562 29.273438 28.191406 29.089844 C 28.113281 28.648438 27.917969 28.265625 27.578125 27.964844 C 27.03125 27.476562 26.371094 27.402344 25.679688 27.460938 C 25.523438 27.472656 25.488281 27.527344 25.484375 27.691406 C 25.480469 27.917969 25.476562 28.148438 25.476562 28.378906 C 25.476562 29.109375 25.476562 29.835938 25.476562 30.566406 C 25.476562 30.773438 25.480469 30.980469 25.484375 31.1875 C 25.492188 31.398438 25.570312 31.578125 25.777344 31.660156 C 26.101562 31.789062 26.445312 31.804688 26.789062 31.75 C 27.335938 31.667969 27.722656 31.347656 27.976562 30.871094 C 28.179688 30.488281 28.238281 30.074219 28.253906 29.648438 Z M 29.585938 32.128906 C 29.582031 32.015625 29.628906 31.921875 29.683594 31.835938 C 29.699219 31.8125 29.753906 31.8125 29.789062 31.808594 L 30.105469 31.746094 C 30.214844 31.722656 30.273438 31.648438 30.289062 31.539062 C 30.296875 31.464844 30.308594 31.394531 30.308594 31.320312 C 30.316406 30.75 30.324219 30.175781 30.324219 29.601562 C 30.328125 29.027344 30.324219 28.453125 30.324219 27.878906 L 30.324219 27.769531 C 30.3125 27.585938 30.222656 27.488281 30.039062 27.460938 L 29.644531 27.402344 C 29.59375 27.394531 29.574219 27.371094 29.59375 27.328125 C 29.625 27.253906 29.652344 27.175781 29.695312 27.109375 C 29.714844 27.085938 29.765625 27.074219 29.804688 27.078125 C 29.992188 27.078125 30.183594 27.09375 30.375 27.09375 L 32.023438 27.082031 C 32.34375 27.082031 32.652344 27.140625 32.9375 27.292969 C 33.25 27.457031 33.425781 27.71875 33.476562 28.070312 C 33.527344 28.441406 33.417969 28.753906 33.144531 29 C 33.035156 29.101562 32.890625 29.171875 32.761719 29.253906 L 32.71875 29.28125 C 32.839844 29.324219 32.953125 29.363281 33.0625 29.40625 C 33.390625 29.539062 33.648438 29.75 33.785156 30.082031 C 33.890625 30.34375 33.890625 30.617188 33.828125 30.886719 C 33.730469 31.3125 33.449219 31.597656 33.085938 31.808594 C 32.742188 32.011719 32.371094 32.128906 31.976562 32.148438 C 31.613281 32.167969 31.25 32.160156 30.882812 32.164062 L 30.671875 32.164062 C 30.320312 32.15625 29.96875 32.148438 29.617188 32.136719 Z M 31.101562 30.464844 L 31.105469 30.464844 C 31.105469 30.644531 31.101562 30.824219 31.105469 31.003906 C 31.109375 31.121094 31.105469 31.242188 31.128906 31.351562 C 31.167969 31.519531 31.242188 31.671875 31.429688 31.71875 C 31.683594 31.785156 31.945312 31.796875 32.203125 31.753906 C 32.523438 31.699219 32.78125 31.535156 32.921875 31.230469 C 33.027344 31.003906 33.042969 30.761719 33.003906 30.515625 C 32.957031 30.1875 32.785156 29.953125 32.5 29.800781 C 32.308594 29.699219 32.109375 29.636719 31.894531 29.628906 C 31.65625 29.617188 31.417969 29.617188 31.175781 29.609375 C 31.109375 29.609375 31.101562 29.640625 31.101562 29.699219 C 31.101562 29.953125 31.101562 30.207031 31.101562 30.464844 Z M 31.609375 29.242188 C 31.742188 29.234375 31.890625 29.234375 32.039062 29.21875 C 32.320312 29.191406 32.519531 29.046875 32.621094 28.777344 C 32.675781 28.640625 32.671875 28.5 32.675781 28.355469 C 32.679688 27.988281 32.460938 27.683594 32.109375 27.554688 C 31.835938 27.460938 31.554688 27.457031 31.273438 27.464844 C 31.160156 27.46875 31.109375 27.519531 31.105469 27.632812 L 31.089844 29.132812 C 31.089844 29.195312 31.117188 29.21875 31.171875 29.222656 Z M 31.609375 29.242188 "/>
<path style=" stroke:none;fill-rule:evenodd;fill:rgb(31.372549%,21.960784%,16.862745%);fill-opacity:1;" d="M 2.882812 31.839844 L 2.863281 32.097656 C 2.675781 32.097656 2.503906 32.097656 2.335938 32.101562 C 2.011719 32.101562 1.6875 32.109375 1.363281 32.113281 L 1.332031 32.113281 C 1.289062 32.109375 1.203125 32.109375 1.203125 32.097656 C 1.1875 32.019531 1.191406 31.9375 1.195312 31.859375 C 1.195312 31.851562 1.226562 31.839844 1.246094 31.832031 L 1.496094 31.777344 C 1.652344 31.738281 1.710938 31.667969 1.714844 31.507812 C 1.726562 31.324219 1.734375 31.144531 1.734375 30.960938 C 1.738281 30.511719 1.734375 30.0625 1.734375 29.613281 C 1.734375 29.507812 1.699219 29.429688 1.601562 29.386719 C 1.484375 29.335938 1.367188 29.285156 1.25 29.238281 C 1.195312 29.214844 1.121094 29.203125 1.128906 29.128906 C 1.136719 29.054688 1.207031 29.03125 1.273438 29.019531 C 1.546875 28.957031 1.820312 28.894531 2.09375 28.828125 C 2.179688 28.804688 2.265625 28.769531 2.371094 28.734375 C 2.375 28.789062 2.386719 28.84375 2.386719 28.898438 L 2.367188 29.15625 C 2.367188 29.183594 2.382812 29.222656 2.40625 29.238281 C 2.417969 29.25 2.460938 29.230469 2.484375 29.214844 C 2.71875 29.035156 2.964844 28.882812 3.246094 28.792969 C 3.683594 28.65625 4.058594 28.785156 4.320312 29.160156 C 4.414062 29.292969 4.414062 29.292969 4.542969 29.199219 C 4.761719 29.039062 4.992188 28.898438 5.25 28.804688 C 5.816406 28.601562 6.359375 28.859375 6.554688 29.429688 C 6.628906 29.636719 6.65625 29.851562 6.652344 30.070312 L 6.648438 31.515625 C 6.648438 31.636719 6.6875 31.707031 6.800781 31.742188 C 6.929688 31.785156 7.0625 31.8125 7.207031 31.851562 L 7.171875 32.101562 C 7.007812 32.101562 6.859375 32.097656 6.707031 32.101562 C 6.339844 32.101562 5.972656 32.105469 5.605469 32.113281 C 5.542969 32.117188 5.523438 32.097656 5.523438 32.039062 C 5.511719 31.847656 5.507812 31.847656 5.691406 31.804688 L 5.75 31.789062 C 5.925781 31.742188 5.984375 31.6875 5.988281 31.507812 C 5.992188 30.996094 6 30.480469 5.976562 29.96875 C 5.949219 29.4375 5.527344 29.152344 5.011719 29.289062 C 4.84375 29.332031 4.691406 29.410156 4.550781 29.511719 C 4.5 29.546875 4.492188 29.585938 4.496094 29.644531 C 4.511719 29.871094 4.519531 30.097656 4.523438 30.324219 C 4.523438 30.722656 4.519531 31.117188 4.523438 31.515625 C 4.523438 31.675781 4.578125 31.738281 4.738281 31.773438 L 4.972656 31.828125 L 5.015625 31.839844 C 5.019531 31.914062 5.023438 31.988281 5.019531 32.066406 C 5.015625 32.113281 4.980469 32.117188 4.9375 32.117188 C 4.710938 32.109375 4.480469 32.101562 4.25 32.101562 C 3.972656 32.105469 3.691406 32.113281 3.414062 32.117188 L 3.347656 32.117188 C 3.347656 32.035156 3.34375 31.960938 3.351562 31.882812 C 3.351562 31.867188 3.382812 31.839844 3.40625 31.832031 L 3.679688 31.777344 C 3.796875 31.746094 3.855469 31.6875 3.859375 31.570312 C 3.890625 31.019531 3.914062 30.46875 3.863281 29.917969 C 3.851562 29.8125 3.816406 29.703125 3.773438 29.605469 C 3.632812 29.296875 3.316406 29.164062 2.949219 29.257812 C 2.777344 29.304688 2.621094 29.382812 2.472656 29.484375 C 2.402344 29.53125 2.367188 29.59375 2.367188 29.671875 C 2.367188 30.222656 2.371094 30.769531 2.371094 31.316406 L 2.375 31.527344 C 2.378906 31.675781 2.441406 31.753906 2.585938 31.785156 C 2.679688 31.808594 2.777344 31.820312 2.882812 31.839844 Z M 2.882812 31.839844 "/>
<path style=" stroke:none;fill-rule:evenodd;fill:rgb(30.980392%,21.960784%,16.862745%);fill-opacity:1;" d="M 19.414062 28.789062 C 19.457031 28.996094 19.457031 29.179688 19.304688 29.320312 C 19.152344 29.460938 18.964844 29.414062 18.777344 29.382812 C 18.796875 29.480469 18.8125 29.5625 18.824219 29.648438 C 18.890625 30.273438 18.621094 30.738281 18.042969 31.003906 C 17.820312 31.105469 17.589844 31.140625 17.351562 31.160156 C 17.234375 31.167969 17.128906 31.257812 17.117188 31.355469 C 17.109375 31.457031 17.167969 31.554688 17.292969 31.585938 C 17.4375 31.621094 17.589844 31.628906 17.742188 31.648438 C 18.0625 31.683594 18.386719 31.699219 18.703125 31.757812 C 19.183594 31.84375 19.449219 32.261719 19.367188 32.746094 C 19.289062 33.175781 19.042969 33.484375 18.695312 33.726562 C 18.113281 34.128906 17.472656 34.246094 16.792969 34.042969 C 16.402344 33.921875 16.128906 33.667969 16.03125 33.253906 C 15.984375 33.042969 16.035156 32.855469 16.191406 32.714844 C 16.378906 32.550781 16.578125 32.402344 16.773438 32.242188 L 16.835938 32.179688 L 16.765625 32.128906 C 16.566406 32.035156 16.40625 31.90625 16.347656 31.683594 C 16.324219 31.605469 16.347656 31.558594 16.410156 31.519531 C 16.519531 31.453125 16.628906 31.386719 16.738281 31.316406 C 16.789062 31.285156 16.839844 31.253906 16.886719 31.214844 C 16.949219 31.167969 16.945312 31.128906 16.867188 31.101562 C 16.6875 31.035156 16.527344 30.941406 16.40625 30.792969 C 16.199219 30.546875 16.140625 30.253906 16.15625 29.941406 C 16.183594 29.457031 16.445312 29.140625 16.875 28.933594 C 17.382812 28.691406 17.890625 28.675781 18.410156 28.898438 C 18.601562 28.980469 18.800781 28.996094 19.007812 28.984375 C 19.160156 28.972656 19.292969 28.914062 19.414062 28.789062 Z M 17.542969 32.257812 C 17.160156 32.253906 17.042969 32.300781 16.820312 32.527344 C 16.570312 32.785156 16.570312 33.136719 16.820312 33.394531 C 17.007812 33.589844 17.246094 33.679688 17.507812 33.707031 C 17.816406 33.738281 18.121094 33.726562 18.398438 33.570312 C 18.699219 33.40625 18.847656 33.101562 18.777344 32.792969 C 18.722656 32.539062 18.535156 32.421875 18.308594 32.355469 C 18.046875 32.277344 17.777344 32.261719 17.542969 32.257812 Z M 16.792969 29.820312 C 16.808594 29.925781 16.8125 30.035156 16.835938 30.136719 C 16.898438 30.40625 17.015625 30.640625 17.28125 30.761719 C 17.597656 30.902344 17.996094 30.839844 18.132812 30.402344 C 18.226562 30.101562 18.214844 29.800781 18.101562 29.507812 C 18.050781 29.375 17.972656 29.265625 17.855469 29.183594 C 17.582031 28.992188 17.089844 28.96875 16.890625 29.386719 C 16.824219 29.523438 16.800781 29.667969 16.792969 29.820312 Z M 16.792969 29.820312 "/>
<path style=" stroke:none;fill-rule:evenodd;fill:rgb(30.980392%,21.568627%,16.862745%);fill-opacity:1;" d="M 12.945312 28.722656 C 12.957031 28.769531 12.976562 28.820312 12.976562 28.875 C 12.980469 28.976562 12.96875 29.078125 12.960938 29.179688 L 12.960938 29.265625 L 13.046875 29.203125 C 13.285156 29.007812 13.535156 28.84375 13.832031 28.753906 C 14.359375 28.59375 14.890625 28.882812 15.066406 29.425781 C 15.128906 29.632812 15.15625 29.84375 15.160156 30.058594 C 15.164062 30.535156 15.167969 31.011719 15.171875 31.488281 C 15.175781 31.660156 15.195312 31.691406 15.355469 31.742188 C 15.449219 31.769531 15.542969 31.789062 15.636719 31.804688 C 15.691406 31.8125 15.710938 31.832031 15.710938 31.882812 L 15.710938 31.929688 C 15.707031 32.128906 15.695312 32.136719 15.503906 32.136719 C 15.042969 32.136719 14.585938 32.140625 14.125 32.140625 C 13.988281 32.144531 13.988281 32.148438 13.976562 32.011719 L 13.972656 31.933594 C 13.980469 31.820312 13.984375 31.820312 14.097656 31.800781 C 14.175781 31.792969 14.253906 31.773438 14.328125 31.753906 C 14.40625 31.734375 14.441406 31.675781 14.453125 31.601562 C 14.457031 31.5625 14.464844 31.523438 14.464844 31.484375 C 14.457031 30.960938 14.464844 30.441406 14.4375 29.917969 C 14.414062 29.496094 14.09375 29.246094 13.671875 29.273438 C 13.464844 29.289062 13.273438 29.359375 13.105469 29.476562 C 12.992188 29.558594 12.96875 29.671875 12.96875 29.792969 C 12.972656 30.28125 12.976562 30.769531 12.980469 31.257812 C 12.980469 31.363281 12.984375 31.472656 12.996094 31.578125 C 13.007812 31.695312 13.046875 31.742188 13.160156 31.765625 C 13.269531 31.789062 13.378906 31.804688 13.496094 31.824219 L 13.507812 31.914062 C 13.511719 32.121094 13.488281 32.136719 13.285156 32.136719 C 12.8125 32.132812 12.335938 32.136719 11.863281 32.144531 C 11.789062 32.144531 11.757812 32.121094 11.757812 32.046875 L 11.757812 32.015625 C 11.746094 31.828125 11.75 31.820312 11.929688 31.789062 L 12.011719 31.773438 C 12.207031 31.730469 12.253906 31.679688 12.257812 31.484375 C 12.265625 30.863281 12.269531 30.242188 12.277344 29.621094 C 12.277344 29.53125 12.242188 29.460938 12.160156 29.425781 C 12.042969 29.375 11.925781 29.324219 11.808594 29.277344 C 11.742188 29.25 11.667969 29.230469 11.667969 29.140625 C 11.664062 29.078125 11.734375 29.023438 11.824219 29.003906 C 12.011719 28.964844 12.199219 28.933594 12.382812 28.886719 C 12.566406 28.84375 12.746094 28.78125 12.945312 28.722656 Z M 12.945312 28.722656 "/>
<path style=" stroke:none;fill-rule:evenodd;fill:rgb(30.980392%,21.960784%,16.862745%);fill-opacity:1;" d="M 23.207031 30.34375 C 23.195312 30.921875 23.046875 31.390625 22.636719 31.746094 C 22.117188 32.191406 21.304688 32.34375 20.644531 32.007812 C 20.359375 31.867188 20.152344 31.648438 20.015625 31.363281 C 19.808594 30.929688 19.757812 30.46875 19.867188 30 C 19.972656 29.535156 20.253906 29.199219 20.675781 28.980469 C 21.109375 28.757812 21.566406 28.667969 22.046875 28.785156 C 22.652344 28.933594 23.089844 29.429688 23.179688 30.0625 C 23.195312 30.171875 23.199219 30.285156 23.207031 30.34375 Z M 22.5 30.65625 L 22.476562 30.65625 C 22.476562 30.601562 22.480469 30.546875 22.476562 30.492188 C 22.457031 30.148438 22.378906 29.824219 22.183594 29.539062 C 21.996094 29.269531 21.738281 29.109375 21.410156 29.085938 C 21.035156 29.0625 20.722656 29.269531 20.613281 29.648438 C 20.449219 30.21875 20.507812 30.773438 20.796875 31.296875 C 20.921875 31.523438 21.109375 31.691406 21.359375 31.78125 C 21.847656 31.953125 22.285156 31.730469 22.410156 31.226562 C 22.457031 31.042969 22.472656 30.847656 22.5 30.65625 Z M 22.5 30.65625 "/>
<path style=" stroke:none;fill-rule:evenodd;fill:rgb(30.980392%,21.568627%,16.862745%);fill-opacity:1;" d="M 11.160156 30.386719 C 11.152344 30.804688 11.054688 31.1875 10.796875 31.523438 C 10.519531 31.882812 10.140625 32.074219 9.710938 32.152344 C 9.203125 32.25 8.726562 32.164062 8.316406 31.820312 C 8.121094 31.660156 7.988281 31.449219 7.902344 31.214844 C 7.757812 30.824219 7.722656 30.425781 7.8125 30.023438 C 7.90625 29.589844 8.148438 29.257812 8.53125 29.035156 C 8.96875 28.777344 9.441406 28.664062 9.949219 28.777344 C 10.601562 28.925781 10.976562 29.351562 11.113281 29.992188 C 11.140625 30.121094 11.144531 30.257812 11.160156 30.386719 Z M 10.449219 30.664062 L 10.429688 30.660156 L 10.429688 30.582031 C 10.417969 30.199219 10.34375 29.835938 10.117188 29.519531 C 9.949219 29.285156 9.722656 29.136719 9.433594 29.09375 C 8.960938 29.027344 8.652344 29.308594 8.550781 29.6875 C 8.417969 30.183594 8.457031 30.675781 8.664062 31.148438 C 8.792969 31.441406 8.996094 31.667969 9.308594 31.78125 C 9.796875 31.953125 10.238281 31.722656 10.363281 31.222656 C 10.40625 31.042969 10.421875 30.851562 10.449219 30.664062 Z M 10.449219 30.664062 "/>
<path style=" stroke:none;fill-rule:evenodd;fill:rgb(26.27451%,60%,20.392157%);fill-opacity:1;" d="M 22.519531 9.171875 C 22.855469 10.140625 23.097656 11.132812 23.175781 12.15625 C 23.277344 13.429688 23.230469 14.695312 22.960938 15.949219 L 22.929688 16.046875 C 22.84375 16.046875 22.757812 16.039062 22.675781 16.050781 C 21.980469 16.160156 21.285156 16.273438 20.589844 16.386719 C 19.871094 16.5 19.152344 16.613281 18.4375 16.738281 C 18.183594 16.78125 17.867188 16.730469 17.765625 17.082031 L 17.714844 17.097656 L 17.75 14.996094 L 17.714844 9.933594 L 18.050781 9.875 C 18.597656 9.785156 19.144531 9.695312 19.691406 9.605469 C 20.347656 9.503906 21 9.402344 21.65625 9.300781 C 21.941406 9.257812 22.230469 9.214844 22.519531 9.171875 Z M 22.519531 9.171875 "/>
<path style=" stroke:none;fill-rule:evenodd;fill:rgb(27.058824%,64.705882%,21.960784%);fill-opacity:1;" d="M 17.027344 23.21875 C 16.671875 22.914062 16.308594 22.625 15.96875 22.304688 C 14.148438 20.585938 12.816406 18.566406 12.160156 16.128906 C 11.980469 15.457031 11.859375 14.777344 11.820312 14.082031 C 11.792969 13.597656 11.753906 13.109375 11.789062 12.628906 C 11.878906 11.34375 12.066406 10.074219 12.441406 8.835938 L 12.460938 8.808594 C 12.5 8.855469 12.550781 8.898438 12.570312 8.953125 C 12.9375 10.035156 13.300781 11.121094 13.664062 12.203125 C 14.804688 15.609375 15.945312 19.011719 17.085938 22.417969 C 17.109375 22.484375 17.164062 22.539062 17.207031 22.597656 Z M 17.027344 23.21875 "/>
<path style=" stroke:none;fill-rule:evenodd;fill:rgb(27.45098%,62.745098%,21.568627%);fill-opacity:1;" d="M 22.519531 9.171875 C 22.230469 9.214844 21.941406 9.257812 21.65625 9.300781 C 21 9.402344 20.347656 9.503906 19.691406 9.605469 C 19.144531 9.695312 18.597656 9.785156 18.050781 9.875 L 17.714844 9.933594 L 17.714844 9.714844 C 17.703125 9.535156 17.683594 9.355469 17.679688 9.175781 L 17.644531 5.742188 C 17.632812 5.027344 17.621094 4.3125 17.605469 3.59375 C 17.597656 3.148438 17.589844 2.703125 17.570312 2.261719 C 17.558594 2.023438 17.519531 1.785156 17.503906 1.546875 C 17.496094 1.40625 17.507812 1.269531 17.507812 1.132812 C 17.679688 1.460938 17.847656 1.796875 18.023438 2.125 C 18.300781 2.640625 18.742188 3.023438 19.140625 3.441406 C 20.710938 5.089844 21.824219 7.007812 22.519531 9.171875 Z M 22.519531 9.171875 "/>
<path style=" stroke:none;fill-rule:evenodd;fill:rgb(25.098039%,58.039216%,20%);fill-opacity:1;" d="M 17.714844 17.097656 L 17.765625 17.082031 C 17.867188 16.730469 18.183594 16.78125 18.4375 16.738281 C 19.152344 16.613281 19.871094 16.5 20.589844 16.386719 C 21.285156 16.273438 21.980469 16.160156 22.675781 16.050781 C 22.757812 16.039062 22.84375 16.046875 22.929688 16.046875 C 22.796875 16.511719 22.695312 16.984375 22.53125 17.4375 C 22.34375 17.949219 22.117188 18.445312 21.875 18.9375 C 21.519531 19.667969 21.070312 20.351562 20.550781 20.976562 C 20.148438 21.457031 19.703125 21.902344 19.253906 22.34375 C 19.007812 22.585938 18.714844 22.785156 18.445312 23.003906 L 18.375 22.957031 L 18.121094 22.738281 L 17.855469 22.164062 C 17.675781 21.492188 17.582031 20.804688 17.566406 20.109375 L 17.570312 19.992188 L 17.605469 19.484375 C 17.617188 19.3125 17.632812 19.136719 17.640625 18.964844 C 17.667969 18.34375 17.691406 17.71875 17.714844 17.097656 Z M 17.714844 17.097656 "/>
<path style=" stroke:none;fill-rule:evenodd;fill:rgb(30.980392%,66.666667%,25.490196%);fill-opacity:1;" d="M 17.714844 17.097656 C 17.691406 17.71875 17.667969 18.34375 17.640625 18.964844 C 17.632812 19.140625 17.617188 19.3125 17.605469 19.484375 L 17.445312 19.546875 C 17.09375 18.5 16.738281 17.46875 16.390625 16.429688 C 15.816406 14.714844 15.246094 13 14.675781 11.285156 C 14.210938 9.898438 13.746094 8.515625 13.273438 7.132812 C 13.253906 7.070312 13.191406 7.019531 13.144531 6.960938 L 14.167969 5.082031 C 14.203125 5.140625 14.25 5.199219 14.273438 5.265625 C 14.746094 6.664062 15.21875 8.066406 15.6875 9.464844 C 16.296875 11.289062 16.898438 13.113281 17.507812 14.9375 C 17.53125 15.011719 17.574219 15.078125 17.609375 15.160156 L 17.75 14.996094 C 17.738281 15.699219 17.726562 16.398438 17.714844 17.097656 Z M 17.714844 17.097656 "/>
<path style=" stroke:none;fill-rule:evenodd;fill:rgb(29.019608%,65.490196%,23.529412%);fill-opacity:1;" d="M 13.144531 6.960938 C 13.191406 7.019531 13.253906 7.070312 13.273438 7.132812 C 13.742188 8.515625 14.210938 9.898438 14.675781 11.285156 C 15.246094 13 15.816406 14.714844 16.390625 16.429688 C 16.738281 17.46875 17.09375 18.5 17.445312 19.546875 L 17.605469 19.484375 L 17.570312 19.992188 L 17.539062 20.109375 C 17.484375 20.664062 17.4375 21.21875 17.367188 21.773438 C 17.335938 22.050781 17.261719 22.324219 17.207031 22.597656 C 17.164062 22.539062 17.109375 22.484375 17.085938 22.417969 C 15.941406 19.011719 14.804688 15.609375 13.664062 12.203125 C 13.300781 11.121094 12.9375 10.035156 12.570312 8.953125 C 12.550781 8.898438 12.5 8.855469 12.460938 8.808594 Z M 13.144531 6.960938 "/>
<path style=" stroke:none;fill-rule:evenodd;fill:rgb(34.117647%,68.235294%,27.843137%);fill-opacity:1;" d="M 17.75 14.996094 L 17.609375 15.160156 C 17.574219 15.078125 17.53125 15.011719 17.507812 14.9375 C 16.898438 13.113281 16.292969 11.289062 15.683594 9.464844 C 15.21875 8.066406 14.746094 6.664062 14.273438 5.265625 C 14.25 5.199219 14.203125 5.140625 14.167969 5.082031 L 15.433594 3.417969 C 15.472656 3.46875 15.53125 3.515625 15.550781 3.578125 C 15.902344 4.605469 16.25 5.632812 16.59375 6.664062 C 16.917969 7.625 17.238281 8.589844 17.5625 9.550781 C 17.585938 9.613281 17.664062 9.660156 17.714844 9.714844 L 17.714844 9.933594 Z M 17.75 14.996094 "/>
<path style=" stroke:none;fill-rule:evenodd;fill:rgb(37.647059%,69.803922%,30.980392%);fill-opacity:1;" d="M 17.714844 9.714844 C 17.660156 9.660156 17.585938 9.613281 17.5625 9.550781 C 17.238281 8.589844 16.917969 7.625 16.59375 6.664062 C 16.25 5.632812 15.902344 4.605469 15.550781 3.578125 C 15.53125 3.515625 15.472656 3.46875 15.433594 3.417969 C 15.84375 3.015625 16.242188 2.597656 16.671875 2.214844 C 17.050781 1.871094 17.355469 1.503906 17.371094 0.964844 L 17.402344 0.859375 L 17.507812 1.132812 C 17.507812 1.269531 17.496094 1.40625 17.503906 1.546875 C 17.519531 1.785156 17.558594 2.023438 17.566406 2.261719 C 17.589844 2.703125 17.597656 3.148438 17.605469 3.59375 C 17.621094 4.308594 17.632812 5.027344 17.644531 5.742188 L 17.679688 9.175781 C 17.683594 9.355469 17.703125 9.535156 17.714844 9.714844 Z M 17.714844 9.714844 "/>
<path style=" stroke:none;fill-rule:evenodd;fill:rgb(66.27451%,66.666667%,53.333333%);fill-opacity:1;" d="M 17.207031 22.597656 C 17.261719 22.324219 17.335938 22.050781 17.367188 21.773438 C 17.4375 21.21875 17.484375 20.664062 17.539062 20.109375 L 17.550781 20.105469 L 17.566406 20.109375 C 17.582031 20.804688 17.675781 21.492188 17.855469 22.164062 C 17.820312 22.210938 17.769531 22.253906 17.75 22.308594 C 17.597656 22.738281 17.453125 23.171875 17.300781 23.597656 C 17.28125 23.65625 17.222656 23.703125 17.179688 23.753906 L 17.023438 23.21875 Z M 17.207031 22.597656 "/>
<path style=" stroke:none;fill-rule:evenodd;fill:rgb(71.372549%,70.980392%,59.607843%);fill-opacity:1;" d="M 17.179688 23.753906 C 17.222656 23.703125 17.28125 23.65625 17.300781 23.597656 C 17.453125 23.171875 17.597656 22.738281 17.75 22.3125 C 17.769531 22.257812 17.820312 22.214844 17.855469 22.164062 L 18.121094 22.738281 C 18.066406 22.8125 17.996094 22.878906 17.96875 22.960938 L 17.464844 24.433594 C 17.445312 24.496094 17.375 24.535156 17.328125 24.585938 Z M 17.179688 23.753906 "/>
<path style=" stroke:none;fill-rule:evenodd;fill:rgb(76.078431%,75.686275%,65.490196%);fill-opacity:1;" d="M 17.328125 24.585938 C 17.375 24.535156 17.445312 24.496094 17.464844 24.433594 L 17.96875 22.960938 C 17.996094 22.878906 18.066406 22.8125 18.121094 22.738281 L 18.375 22.957031 C 18.25 23.078125 18.183594 23.214844 18.222656 23.394531 L 18.148438 23.644531 C 18.113281 23.6875 18.0625 23.726562 18.042969 23.777344 C 17.867188 24.277344 17.703125 24.785156 17.523438 25.285156 C 17.503906 25.347656 17.441406 25.398438 17.398438 25.453125 Z M 17.328125 24.585938 "/>
<path style=" stroke:none;fill-rule:evenodd;fill:rgb(80.784314%,80.392157%,71.764706%);fill-opacity:1;" d="M 17.394531 25.453125 C 17.441406 25.398438 17.503906 25.347656 17.523438 25.285156 C 17.699219 24.78125 17.867188 24.277344 18.042969 23.777344 C 18.0625 23.726562 18.113281 23.6875 18.144531 23.644531 L 18.039062 24.804688 C 18.011719 24.835938 17.96875 24.867188 17.957031 24.902344 L 17.601562 25.917969 C 17.578125 25.988281 17.53125 26.046875 17.492188 26.113281 C 17.460938 26.070312 17.402344 26.027344 17.398438 25.984375 C 17.386719 25.808594 17.394531 25.632812 17.394531 25.453125 Z M 17.394531 25.453125 "/>
<path style=" stroke:none;fill-rule:evenodd;fill:rgb(85.882353%,85.490196%,78.039216%);fill-opacity:1;" d="M 17.492188 26.113281 C 17.53125 26.046875 17.578125 25.988281 17.601562 25.917969 L 17.957031 24.902344 C 17.972656 24.867188 18.011719 24.835938 18.039062 24.804688 L 18.042969 25.566406 L 17.789062 26.21875 Z M 17.492188 26.113281 "/>
<path style=" stroke:none;fill-rule:evenodd;fill:rgb(92.156863%,91.372549%,86.27451%);fill-opacity:1;" d="M 17.789062 26.21875 L 18.042969 25.566406 L 18.09375 26.335938 Z M 17.789062 26.21875 "/>
<path style=" stroke:none;fill-rule:evenodd;fill:rgb(80.784314%,80.392157%,71.764706%);fill-opacity:1;" d="M 18.222656 23.394531 C 18.183594 23.21875 18.25 23.078125 18.375 22.957031 L 18.445312 23.003906 Z M 18.222656 23.394531 "/>
<path style=" stroke:none;fill-rule:evenodd;fill:rgb(30.980392%,66.666667%,25.490196%);fill-opacity:1;" d="M 17.566406 20.109375 L 17.550781 20.105469 L 17.539062 20.109375 L 17.570312 19.992188 Z M 17.566406 20.109375 "/>
</g>
</svg>
