<?xml version="1.0" encoding="UTF-8"?>
<svg xmlns="http://www.w3.org/2000/svg" xmlns:xlink="http://www.w3.org/1999/xlink" width="35pt" height="35pt" viewBox="0 0 35 35" version="1.1">
<g id="surface1">
<path style=" stroke:none;fill-rule:nonzero;fill:rgb(51.372549%,80.392157%,16.078431%);fill-opacity:1;" d="M 31.261719 22.078125 C 31.179688 22.078125 31.101562 22.058594 31.035156 22.019531 L 30.308594 21.589844 C 30.199219 21.53125 30.253906 21.507812 30.289062 21.496094 C 30.433594 21.445312 30.460938 21.433594 30.617188 21.347656 C 30.632812 21.335938 30.652344 21.339844 30.671875 21.351562 L 31.226562 21.679688 C 31.246094 21.691406 31.277344 21.691406 31.292969 21.679688 L 33.464844 20.429688 C 33.484375 20.417969 33.496094 20.394531 33.496094 20.371094 L 33.496094 17.863281 C 33.496094 17.839844 33.484375 17.816406 33.464844 17.804688 L 31.292969 16.554688 C 31.273438 16.542969 31.246094 16.542969 31.226562 16.554688 L 29.058594 17.804688 C 29.039062 17.816406 29.023438 17.839844 29.023438 17.863281 L 29.023438 20.371094 C 29.023438 20.394531 29.039062 20.417969 29.058594 20.425781 L 29.652344 20.769531 C 29.976562 20.933594 30.171875 20.742188 30.171875 20.550781 L 30.171875 18.078125 C 30.171875 18.042969 30.203125 18.015625 30.234375 18.015625 L 30.511719 18.015625 C 30.546875 18.015625 30.574219 18.042969 30.574219 18.078125 L 30.574219 20.550781 C 30.574219 20.980469 30.339844 21.230469 29.929688 21.230469 C 29.804688 21.230469 29.707031 21.230469 29.433594 21.09375 L 28.863281 20.765625 C 28.722656 20.683594 28.636719 20.53125 28.636719 20.371094 L 28.636719 17.867188 C 28.636719 17.703125 28.722656 17.550781 28.863281 17.46875 L 31.03125 16.214844 C 31.171875 16.136719 31.351562 16.136719 31.488281 16.214844 L 33.660156 17.46875 C 33.800781 17.550781 33.886719 17.703125 33.886719 17.867188 L 33.886719 20.371094 C 33.886719 20.53125 33.800781 20.683594 33.660156 20.765625 L 31.488281 22.019531 C 31.417969 22.058594 31.339844 22.078125 31.261719 22.078125 M 31.929688 20.355469 C 30.980469 20.355469 30.78125 19.917969 30.78125 19.550781 C 30.78125 19.519531 30.8125 19.488281 30.84375 19.488281 L 31.125 19.488281 C 31.15625 19.488281 31.183594 19.511719 31.1875 19.542969 C 31.230469 19.828125 31.355469 19.972656 31.929688 19.972656 C 32.386719 19.972656 32.582031 19.871094 32.582031 19.625 C 32.582031 19.488281 32.527344 19.382812 31.816406 19.3125 C 31.222656 19.253906 30.855469 19.125 30.855469 18.648438 C 30.855469 18.210938 31.226562 17.949219 31.84375 17.949219 C 32.539062 17.949219 32.882812 18.191406 32.925781 18.707031 C 32.929688 18.726562 32.921875 18.742188 32.910156 18.757812 C 32.898438 18.769531 32.882812 18.777344 32.863281 18.777344 L 32.582031 18.777344 C 32.554688 18.777344 32.527344 18.753906 32.523438 18.726562 C 32.453125 18.425781 32.289062 18.332031 31.84375 18.332031 C 31.34375 18.332031 31.285156 18.503906 31.285156 18.632812 C 31.285156 18.792969 31.355469 18.839844 32.027344 18.925781 C 32.695312 19.015625 33.011719 19.140625 33.011719 19.609375 C 33.011719 20.082031 32.617188 20.355469 31.929688 20.355469 "/>
<path style=" stroke:none;fill-rule:nonzero;fill:rgb(25.098039%,25.490196%,21.568627%);fill-opacity:1;" d="M 26.792969 18.710938 C 26.878906 18.660156 26.929688 18.570312 26.929688 18.472656 L 26.929688 17.828125 C 26.929688 17.726562 26.878906 17.636719 26.792969 17.585938 L 24.503906 16.257812 C 24.417969 16.207031 24.3125 16.207031 24.226562 16.257812 L 21.925781 17.585938 C 21.839844 17.636719 21.785156 17.726562 21.785156 17.828125 L 21.785156 20.484375 C 21.785156 20.585938 21.839844 20.675781 21.925781 20.726562 L 24.214844 22.027344 C 24.296875 22.078125 24.402344 22.078125 24.484375 22.03125 L 25.867188 21.261719 C 25.914062 21.238281 25.941406 21.191406 25.941406 21.140625 C 25.941406 21.089844 25.914062 21.042969 25.871094 21.019531 L 23.554688 19.691406 C 23.511719 19.664062 23.484375 19.621094 23.484375 19.570312 L 23.484375 18.738281 C 23.484375 18.6875 23.511719 18.640625 23.554688 18.617188 L 24.277344 18.203125 C 24.320312 18.175781 24.371094 18.175781 24.414062 18.203125 L 25.136719 18.617188 C 25.179688 18.640625 25.207031 18.6875 25.207031 18.738281 L 25.207031 19.394531 C 25.207031 19.441406 25.230469 19.488281 25.273438 19.511719 C 25.316406 19.539062 25.371094 19.539062 25.414062 19.511719 L 26.792969 18.710938 "/>
<path style=" stroke:none;fill-rule:nonzero;fill:rgb(51.372549%,80.392157%,16.078431%);fill-opacity:1;" d="M 24.332031 18.585938 C 24.347656 18.578125 24.367188 18.578125 24.386719 18.585938 L 24.828125 18.839844 C 24.84375 18.851562 24.851562 18.867188 24.851562 18.886719 L 24.851562 19.398438 C 24.851562 19.417969 24.84375 19.433594 24.828125 19.445312 L 24.386719 19.699219 C 24.367188 19.707031 24.347656 19.707031 24.332031 19.699219 L 23.890625 19.445312 C 23.875 19.433594 23.863281 19.417969 23.863281 19.398438 L 23.863281 18.886719 C 23.863281 18.867188 23.875 18.851562 23.890625 18.839844 L 24.332031 18.585938 "/>
<path style=" stroke:none;fill-rule:nonzero;fill:rgb(25.098039%,25.490196%,21.568627%);fill-opacity:1;" d="M 18.34375 19.648438 C 18.34375 19.671875 18.328125 19.695312 18.308594 19.707031 L 17.519531 20.164062 C 17.496094 20.175781 17.46875 20.175781 17.449219 20.164062 L 16.660156 19.707031 C 16.636719 19.695312 16.625 19.671875 16.625 19.648438 L 16.625 18.734375 C 16.625 18.710938 16.636719 18.6875 16.660156 18.675781 L 17.449219 18.21875 C 17.46875 18.207031 17.496094 18.207031 17.519531 18.21875 L 18.308594 18.675781 C 18.332031 18.6875 18.34375 18.710938 18.34375 18.734375 Z M 18.554688 12.890625 C 18.511719 12.867188 18.460938 12.867188 18.417969 12.890625 C 18.375 12.917969 18.351562 12.960938 18.351562 13.011719 L 18.351562 16.542969 C 18.351562 16.578125 18.332031 16.609375 18.300781 16.625 C 18.269531 16.644531 18.234375 16.644531 18.203125 16.625 L 17.628906 16.292969 C 17.542969 16.246094 17.4375 16.246094 17.351562 16.292969 L 15.046875 17.621094 C 14.960938 17.671875 14.910156 17.765625 14.910156 17.863281 L 14.910156 20.519531 C 14.910156 20.621094 14.960938 20.710938 15.046875 20.761719 L 17.351562 22.089844 C 17.4375 22.140625 17.542969 22.140625 17.628906 22.089844 L 19.929688 20.761719 C 20.015625 20.710938 20.070312 20.621094 20.070312 20.519531 L 20.070312 13.894531 C 20.070312 13.796875 20.015625 13.703125 19.925781 13.652344 L 18.554688 12.890625 "/>
<path style=" stroke:none;fill-rule:nonzero;fill:rgb(51.372549%,80.392157%,16.078431%);fill-opacity:1;" d="M 10.457031 16.242188 C 10.542969 16.195312 10.648438 16.195312 10.734375 16.242188 L 13.035156 17.570312 C 13.121094 17.621094 13.175781 17.714844 13.175781 17.8125 L 13.175781 20.472656 C 13.175781 20.570312 13.121094 20.664062 13.035156 20.710938 L 10.734375 22.042969 C 10.648438 22.089844 10.542969 22.089844 10.457031 22.042969 L 8.15625 20.710938 C 8.070312 20.664062 8.015625 20.570312 8.015625 20.472656 L 8.015625 17.8125 C 8.015625 17.714844 8.070312 17.621094 8.15625 17.570312 L 10.457031 16.242188 "/>
<path style=" stroke:none;fill-rule:nonzero;fill:rgb(25.098039%,25.490196%,21.568627%);fill-opacity:1;" d="M 6.269531 17.789062 C 6.269531 17.691406 6.21875 17.597656 6.132812 17.550781 L 3.828125 16.226562 C 3.789062 16.203125 3.746094 16.191406 3.703125 16.1875 L 3.679688 16.1875 C 3.636719 16.191406 3.59375 16.203125 3.550781 16.226562 L 1.25 17.550781 C 1.164062 17.597656 1.113281 17.691406 1.113281 17.789062 L 1.117188 21.355469 C 1.117188 21.40625 1.144531 21.453125 1.1875 21.476562 C 1.230469 21.503906 1.28125 21.503906 1.324219 21.476562 L 2.691406 20.695312 C 2.777344 20.640625 2.832031 20.550781 2.832031 20.453125 L 2.832031 18.785156 C 2.832031 18.6875 2.882812 18.59375 2.96875 18.546875 L 3.550781 18.210938 C 3.59375 18.183594 3.644531 18.171875 3.691406 18.171875 C 3.738281 18.171875 3.785156 18.183594 3.828125 18.210938 L 4.410156 18.546875 C 4.496094 18.59375 4.550781 18.6875 4.550781 18.785156 L 4.550781 20.453125 C 4.550781 20.550781 4.605469 20.644531 4.691406 20.695312 L 6.058594 21.476562 C 6.101562 21.503906 6.152344 21.503906 6.195312 21.476562 C 6.238281 21.453125 6.265625 21.40625 6.265625 21.355469 L 6.269531 17.789062 "/>
</g>
</svg>
