<?xml version="1.0" encoding="UTF-8"?>
<svg xmlns="http://www.w3.org/2000/svg" xmlns:xlink="http://www.w3.org/1999/xlink" width="35pt" height="35pt" viewBox="0 0 35 35" version="1.1">
<g id="surface1">
<path style=" stroke:none;fill-rule:nonzero;fill:rgb(0%,84.705882%,100%);fill-opacity:1;" d="M 20.398438 17.476562 C 20.398438 19.09375 19.089844 20.40625 17.472656 20.40625 C 15.855469 20.40625 14.542969 19.09375 14.542969 17.476562 C 14.542969 15.859375 15.855469 14.546875 17.472656 14.546875 C 19.089844 14.546875 20.398438 15.859375 20.398438 17.476562 Z M 20.398438 17.476562 "/>
<path style=" stroke:none;fill-rule:nonzero;fill:rgb(0%,84.705882%,100%);fill-opacity:1;" d="M 17.472656 24.183594 C 13.359375 24.183594 9.765625 23.699219 7.074219 22.777344 C 5.332031 22.183594 3.851562 21.390625 2.792969 20.488281 C 1.675781 19.53125 1.078125 18.484375 1.078125 17.476562 C 1.078125 15.539062 3.203125 13.644531 6.765625 12.40625 C 9.683594 11.390625 13.488281 10.828125 17.464844 10.828125 C 21.375 10.828125 25.125 11.375 28.023438 12.378906 C 29.722656 12.960938 31.148438 13.71875 32.164062 14.558594 C 33.265625 15.480469 33.851562 16.492188 33.851562 17.476562 C 33.851562 19.488281 31.476562 21.523438 27.648438 22.789062 C 24.941406 23.6875 21.328125 24.183594 17.472656 24.183594 Z M 17.472656 12.226562 C 13.695312 12.226562 9.964844 12.773438 7.234375 13.726562 C 3.953125 14.871094 2.484375 16.433594 2.484375 17.476562 C 2.484375 18.5625 4.066406 20.269531 7.53125 21.453125 C 10.074219 22.324219 13.515625 22.785156 17.472656 22.785156 C 21.179688 22.785156 24.640625 22.316406 27.210938 21.460938 C 30.8125 20.265625 32.457031 18.554688 32.457031 17.476562 C 32.457031 16.921875 32.035156 16.269531 31.273438 15.632812 C 30.390625 14.898438 29.109375 14.226562 27.574219 13.695312 C 24.816406 12.75 21.226562 12.226562 17.472656 12.226562 Z M 17.472656 12.226562 "/>
<path style=" stroke:none;fill-rule:nonzero;fill:rgb(0%,84.705882%,100%);fill-opacity:1;" d="M 10.828125 32.070312 C 10.230469 32.070312 9.707031 31.941406 9.261719 31.6875 C 7.589844 30.71875 7.003906 27.929688 7.710938 24.226562 C 8.289062 21.1875 9.699219 17.617188 11.691406 14.167969 C 13.644531 10.785156 15.988281 7.8125 18.304688 5.796875 C 19.660156 4.621094 21.027344 3.757812 22.265625 3.300781 C 23.613281 2.804688 24.78125 2.804688 25.632812 3.296875 C 27.375 4.300781 27.953125 7.378906 27.136719 11.324219 C 26.558594 14.121094 25.183594 17.5 23.257812 20.84375 C 21.203125 24.402344 18.988281 27.269531 16.847656 29.144531 C 15.457031 30.355469 14.027344 31.242188 12.722656 31.703125 C 12.039062 31.949219 11.398438 32.070312 10.828125 32.070312 Z M 12.289062 14.519531 L 12.898438 14.871094 C 11.011719 18.136719 9.621094 21.640625 9.082031 24.488281 C 8.433594 27.902344 9.058594 29.953125 9.957031 30.472656 C 10.179688 30.601562 10.472656 30.671875 10.828125 30.671875 C 11.988281 30.671875 13.8125 29.9375 15.925781 28.09375 C 17.949219 26.324219 20.066406 23.574219 22.042969 20.148438 C 23.898438 16.933594 25.21875 13.703125 25.765625 11.046875 C 26.53125 7.332031 25.871094 5.058594 24.933594 4.515625 C 24.453125 4.242188 23.675781 4.277344 22.746094 4.621094 C 21.664062 5.015625 20.445312 5.792969 19.222656 6.859375 C 17.023438 8.773438 14.777344 11.621094 12.898438 14.875 Z M 12.289062 14.519531 "/>
<path style=" stroke:none;fill-rule:nonzero;fill:rgb(0%,84.705882%,100%);fill-opacity:1;" d="M 24.113281 32.089844 C 22.527344 32.089844 20.515625 31.132812 18.414062 29.324219 C 16.070312 27.304688 13.683594 24.300781 11.691406 20.855469 C 9.730469 17.472656 8.328125 13.953125 7.742188 10.9375 C 7.398438 9.175781 7.332031 7.558594 7.554688 6.257812 C 7.800781 4.839844 8.375 3.832031 9.234375 3.335938 C 10.972656 2.328125 13.929688 3.367188 16.941406 6.042969 C 19.074219 7.9375 21.316406 10.820312 23.246094 14.15625 C 25.304688 17.714844 26.6875 21.070312 27.234375 23.859375 C 27.589844 25.667969 27.648438 27.347656 27.398438 28.710938 C 27.128906 30.164062 26.523438 31.195312 25.648438 31.703125 C 25.210938 31.960938 24.691406 32.089844 24.113281 32.089844 Z M 12.902344 20.152344 C 14.792969 23.421875 17.136719 26.378906 19.332031 28.261719 C 21.960938 30.527344 24.050781 31.015625 24.953125 30.492188 C 25.894531 29.949219 26.582031 27.726562 25.871094 24.132812 C 25.347656 21.496094 24.023438 18.289062 22.039062 14.863281 C 20.175781 11.648438 18.035156 8.890625 16.011719 7.09375 C 13.175781 4.574219 10.878906 4.007812 9.941406 4.550781 C 9.460938 4.824219 9.105469 5.519531 8.9375 6.5 C 8.746094 7.628906 8.800781 9.078125 9.117188 10.667969 C 9.675781 13.535156 11.019531 16.898438 12.902344 20.152344 Z M 12.902344 20.152344 "/>
</g>
</svg>
