<?xml version="1.0" encoding="UTF-8"?>
<svg xmlns="http://www.w3.org/2000/svg" xmlns:xlink="http://www.w3.org/1999/xlink" width="35pt" height="35pt" viewBox="0 0 35 35" version="1.1">
<g id="surface1">
<path style=" stroke:none;fill-rule:nonzero;fill:rgb(46.27451%,29.019608%,73.72549%);fill-opacity:1;" d="M 22.960938 22.890625 C 23.976562 22.785156 24.746094 21.910156 24.710938 20.859375 C 24.675781 19.808594 23.800781 18.96875 22.75 18.96875 L 22.679688 18.96875 C 21.59375 19.003906 20.753906 19.914062 20.789062 21 C 20.824219 21.523438 21.035156 21.980469 21.351562 22.296875 C 20.160156 24.640625 18.339844 26.355469 15.609375 27.789062 C 13.753906 28.769531 11.828125 29.121094 9.90625 28.875 C 8.328125 28.664062 7.105469 27.964844 6.335938 26.808594 C 5.214844 25.09375 5.109375 23.238281 6.054688 21.386719 C 6.71875 20.054688 7.769531 19.074219 8.433594 18.585938 C 8.296875 18.128906 8.085938 17.359375 7.980469 16.800781 C 2.90625 20.476562 3.429688 25.445312 4.96875 27.789062 C 6.125 29.539062 8.46875 30.625 11.058594 30.625 C 11.761719 30.625 12.460938 30.554688 13.160156 30.378906 C 17.640625 29.503906 21.035156 26.84375 22.960938 22.890625 Z M 22.960938 22.890625 "/>
<path style=" stroke:none;fill-rule:nonzero;fill:rgb(46.27451%,29.019608%,73.72549%);fill-opacity:1;" d="M 29.121094 18.550781 C 26.460938 15.433594 22.539062 13.71875 18.058594 13.71875 L 17.5 13.71875 C 17.183594 13.089844 16.519531 12.671875 15.785156 12.671875 L 15.714844 12.671875 C 14.628906 12.703125 13.789062 13.613281 13.824219 14.699219 C 13.859375 15.75 14.734375 16.589844 15.785156 16.589844 L 15.855469 16.589844 C 16.625 16.554688 17.289062 16.066406 17.570312 15.398438 L 18.199219 15.398438 C 20.859375 15.398438 23.378906 16.171875 25.65625 17.675781 C 27.40625 18.828125 28.664062 20.335938 29.363281 22.15625 C 29.960938 23.625 29.925781 25.058594 29.296875 26.285156 C 28.316406 28.140625 26.671875 29.15625 24.5 29.15625 C 23.101562 29.15625 21.769531 28.734375 21.070312 28.421875 C 20.683594 28.769531 19.984375 29.328125 19.496094 29.679688 C 21 30.378906 22.539062 30.765625 24.011719 30.765625 C 27.371094 30.765625 29.855469 28.910156 30.800781 27.054688 C 31.816406 25.023438 31.746094 21.523438 29.121094 18.550781 Z M 29.121094 18.550781 "/>
<path style=" stroke:none;fill-rule:nonzero;fill:rgb(46.27451%,29.019608%,73.72549%);fill-opacity:1;" d="M 11.339844 23.484375 C 11.375 24.535156 12.25 25.375 13.300781 25.375 L 13.371094 25.375 C 14.453125 25.339844 15.296875 24.429688 15.261719 23.34375 C 15.226562 22.296875 14.351562 21.453125 13.300781 21.453125 L 13.230469 21.453125 C 13.160156 21.453125 13.054688 21.453125 12.984375 21.488281 C 11.550781 19.109375 10.953125 16.519531 11.164062 13.71875 C 11.304688 11.621094 12.003906 9.800781 13.230469 8.296875 C 14.246094 7 16.203125 6.371094 17.535156 6.335938 C 21.246094 6.265625 22.820312 10.886719 22.925781 12.738281 C 23.378906 12.84375 24.148438 13.089844 24.675781 13.265625 C 24.253906 7.59375 20.753906 4.65625 17.394531 4.65625 C 14.246094 4.65625 11.339844 6.929688 10.183594 10.289062 C 8.574219 14.769531 9.625 19.074219 11.585938 22.46875 C 11.410156 22.714844 11.304688 23.101562 11.339844 23.484375 Z M 11.339844 23.484375 "/>
</g>
</svg>
