<?xml version="1.0" encoding="UTF-8"?>
<svg xmlns="http://www.w3.org/2000/svg" xmlns:xlink="http://www.w3.org/1999/xlink" width="35pt" height="35pt" viewBox="0 0 35 35" version="1.1">
<g id="surface1">
<path style=" stroke:none;fill-rule:nonzero;fill:rgb(80%,40%,60%);fill-opacity:1;" d="M 5.25 0 L 29.75 0 C 32.648438 0 35 2.351562 35 5.25 L 35 29.75 C 35 32.648438 32.648438 35 29.75 35 L 5.25 35 C 2.351562 35 0 32.648438 0 29.75 L 0 5.25 C 0 2.351562 2.351562 0 5.25 0 Z M 5.25 0 "/>
<path style=" stroke:none;fill-rule:nonzero;fill:rgb(100%,100%,100%);fill-opacity:1;" d="M 17.636719 6.015625 C 11.074219 8.273438 6.835938 12.851562 7.246094 15.585938 C 7.65625 18.320312 11.757812 20.507812 13.601562 21.945312 C 11.210938 23.171875 8.203125 25.019531 8.273438 27.414062 C 8.40625 30.695312 11.960938 29.667969 13.46875 28.710938 C 14.96875 27.753906 16.476562 25.085938 15.515625 22.285156 C 17.636719 21.738281 19.484375 22.421875 20.03125 22.832031 C 22.148438 24.335938 21.054688 26.046875 20.304688 26.320312 C 19.550781 26.59375 20.03125 26.726562 20.507812 26.59375 C 20.984375 26.453125 22.011719 25.773438 22.011719 24.609375 C 22.011719 21.671875 18.867188 20.304688 14.96875 21.328125 C 12.714844 18.9375 9.640625 17.84375 9.773438 15.242188 C 9.84375 14.289062 10.1875 11.828125 16.269531 8.75 C 22.351562 5.671875 26.660156 6.90625 26.113281 9.707031 C 25.292969 13.945312 17.910156 16.816406 15.3125 14.355469 C 15.175781 14.082031 14.695312 13.875 14.96875 14.628906 C 16.335938 18.046875 27.414062 16.476562 27.890625 9.226562 C 28.027344 5.398438 22.492188 4.375 17.636719 6.015625 Z M 11.757812 27.890625 C 10.046875 28.4375 10.117188 27.34375 10.1875 26.933594 C 10.390625 25.773438 11.347656 24.335938 14.21875 22.898438 C 15.039062 25.5 13.195312 27.480469 11.757812 27.890625 Z M 11.757812 27.890625 "/>
</g>
</svg>
