<?xml version="1.0" encoding="UTF-8"?>
<svg xmlns="http://www.w3.org/2000/svg" xmlns:xlink="http://www.w3.org/1999/xlink" width="35pt" height="35pt" viewBox="0 0 35 35" version="1.1">
<g id="surface1">
<path style=" stroke:none;fill-rule:nonzero;fill:rgb(36.862745%,74.509804%,88.235294%);fill-opacity:1;" d="M 35 27.144531 C 35 31.484375 31.480469 35 27.144531 35 L 7.855469 35 C 3.519531 35 0 31.480469 0 27.144531 L 0 7.855469 C 0 3.519531 3.519531 0 7.855469 0 L 27.144531 0 C 31.480469 0 35 3.519531 35 7.855469 Z M 35 27.144531 "/>
<path style=" stroke:none;fill-rule:nonzero;fill:rgb(100%,100%,100%);fill-opacity:1;" d="M 26.1875 9.167969 L 7.949219 16.269531 C 7.363281 16.5 7.398438 17.351562 8.003906 17.527344 L 12.640625 18.894531 L 14.367188 24.382812 C 14.546875 24.957031 15.277344 25.128906 15.695312 24.699219 L 18.09375 22.25 L 22.796875 25.703125 C 23.371094 26.125 24.191406 25.8125 24.335938 25.117188 L 27.445312 10.226562 C 27.601562 9.5 26.886719 8.894531 26.1875 9.167969 Z M 23.90625 12.46875 L 15.4375 19.960938 C 15.355469 20.035156 15.296875 20.140625 15.285156 20.25 L 14.957031 23.144531 C 14.945312 23.242188 14.8125 23.257812 14.785156 23.160156 L 13.445312 18.832031 C 13.382812 18.632812 13.46875 18.421875 13.644531 18.3125 L 23.644531 12.105469 C 23.871094 11.976562 24.109375 12.289062 23.90625 12.46875 Z M 23.90625 12.46875 "/>
</g>
</svg>
