<?xml version="1.0" encoding="UTF-8"?>
<svg xmlns="http://www.w3.org/2000/svg" xmlns:xlink="http://www.w3.org/1999/xlink" width="35pt" height="35pt" viewBox="0 0 35 35" version="1.1">
<g id="surface1">
<path style=" stroke:none;fill-rule:nonzero;fill:rgb(0%,47.843137%,80%);fill-opacity:1;" d="M 0.546875 17.476562 L 0.546875 34.566406 L 34.726562 34.566406 L 34.726562 0.386719 L 0.546875 0.386719 Z M 28.089844 16.109375 C 28.910156 16.296875 29.652344 16.726562 30.226562 17.339844 C 30.546875 17.667969 30.820312 18.035156 31.050781 18.433594 C 31.046875 18.476562 29.570312 19.472656 28.671875 20.03125 C 28.640625 20.054688 28.507812 19.910156 28.363281 19.695312 C 28.03125 19.121094 27.425781 18.753906 26.757812 18.730469 C 25.722656 18.660156 25.054688 19.203125 25.0625 20.097656 C 25.050781 20.320312 25.101562 20.542969 25.207031 20.738281 C 25.433594 21.210938 25.859375 21.492188 27.1875 22.066406 C 29.636719 23.117188 30.683594 23.8125 31.332031 24.800781 C 32.0625 25.894531 32.222656 27.660156 31.730469 28.96875 C 31.183594 30.390625 29.84375 31.355469 27.949219 31.675781 C 27.082031 31.773438 26.207031 31.765625 25.34375 31.648438 C 24.027344 31.433594 22.8125 30.808594 21.875 29.855469 C 21.5625 29.507812 20.949219 28.605469 20.984375 28.539062 C 21.085938 28.464844 21.191406 28.398438 21.300781 28.339844 L 22.558594 27.617188 L 23.539062 27.046875 L 23.746094 27.351562 C 24.089844 27.847656 24.53125 28.269531 25.042969 28.59375 C 26.136719 29.167969 27.628906 29.089844 28.367188 28.421875 C 28.878906 27.921875 28.957031 27.125 28.554688 26.53125 C 28.28125 26.152344 27.734375 25.832031 26.207031 25.164062 C 24.441406 24.40625 23.683594 23.933594 22.988281 23.183594 C 22.554688 22.691406 22.234375 22.105469 22.050781 21.476562 C 21.914062 20.753906 21.890625 20.015625 21.988281 19.289062 C 22.351562 17.585938 23.628906 16.394531 25.496094 16.042969 C 26.359375 15.9375 27.234375 15.960938 28.089844 16.113281 Z M 20.066406 17.539062 L 20.066406 18.941406 L 15.628906 18.941406 L 15.628906 31.582031 L 12.484375 31.582031 L 12.484375 18.9375 L 8.035156 18.9375 L 8.035156 17.570312 C 8.023438 17.101562 8.035156 16.628906 8.070312 16.160156 C 8.089844 16.136719 10.804688 16.128906 14.085938 16.132812 L 20.050781 16.132812 Z M 20.066406 17.539062 "/>
</g>
</svg>
