<?xml version="1.0" encoding="UTF-8"?>
<svg xmlns="http://www.w3.org/2000/svg" xmlns:xlink="http://www.w3.org/1999/xlink" width="35pt" height="35pt" viewBox="0 0 35 35" version="1.1">
<g id="surface1">
<path style=" stroke:none;fill-rule:nonzero;fill:rgb(40.392157%,54.117647%,68.627451%);fill-opacity:1;" d="M 35 27.144531 C 35 31.484375 31.480469 35 27.144531 35 L 7.855469 35 C 3.519531 35 0 31.480469 0 27.144531 L 0 7.855469 C 0 3.519531 3.519531 0 7.855469 0 L 27.144531 0 C 31.480469 0 35 3.519531 35 7.855469 Z M 35 27.144531 "/>
<path style=" stroke:none;fill-rule:nonzero;fill:rgb(100%,100%,100%);fill-opacity:1;" d="M 17.261719 23.882812 L 18.609375 23.882812 C 18.609375 23.882812 19.015625 23.835938 19.222656 23.617188 C 19.414062 23.414062 19.40625 23.023438 19.40625 23.023438 C 19.40625 23.023438 19.378906 21.210938 20.21875 20.945312 C 21.046875 20.679688 22.113281 22.695312 23.242188 23.46875 C 24.097656 24.054688 24.746094 23.925781 24.746094 23.925781 L 27.761719 23.882812 C 27.761719 23.882812 29.339844 23.789062 28.585938 22.542969 C 28.527344 22.441406 28.148438 21.628906 26.34375 19.953125 C 24.457031 18.203125 24.710938 18.484375 26.988281 15.449219 C 28.375 13.601562 28.929688 12.476562 28.757812 11.988281 C 28.59375 11.53125 27.574219 11.65625 27.574219 11.65625 L 24.179688 11.675781 C 24.179688 11.675781 23.925781 11.640625 23.742188 11.75 C 23.554688 11.859375 23.441406 12.113281 23.441406 12.113281 C 23.441406 12.113281 22.898438 13.542969 22.183594 14.757812 C 20.671875 17.328125 20.070312 17.460938 19.816406 17.300781 C 19.242188 16.925781 19.386719 15.8125 19.386719 15.011719 C 19.386719 12.523438 19.761719 11.492188 18.648438 11.21875 C 18.28125 11.128906 18.007812 11.066406 17.0625 11.058594 C 15.851562 11.046875 14.828125 11.066406 14.246094 11.347656 C 13.863281 11.539062 13.5625 11.957031 13.738281 11.984375 C 13.964844 12.011719 14.472656 12.121094 14.746094 12.488281 C 15.09375 12.960938 15.078125 14.027344 15.078125 14.027344 C 15.078125 14.027344 15.277344 16.953125 14.613281 17.320312 C 14.15625 17.574219 13.527344 17.0625 12.179688 14.730469 C 11.492188 13.542969 10.972656 12.222656 10.972656 12.222656 C 10.972656 12.222656 10.867188 11.976562 10.691406 11.847656 C 10.472656 11.6875 10.171875 11.632812 10.171875 11.632812 L 6.945312 11.65625 C 6.945312 11.65625 6.460938 11.667969 6.28125 11.878906 C 6.125 12.066406 6.269531 12.453125 6.269531 12.453125 C 6.269531 12.453125 8.789062 18.359375 11.65625 21.34375 C 14.28125 24.0625 17.261719 23.882812 17.261719 23.882812 Z M 17.261719 23.882812 "/>
</g>
</svg>
